<?xml version="1.0" encoding="utf-8"?>
<!-- Generator: Adobe Illustrator 22.1.0, SVG Export Plug-In . SVG Version: 6.00 Build 0)  -->
<svg version="1.1" id="Layer_1" xmlns="http://www.w3.org/2000/svg" xmlns:xlink="http://www.w3.org/1999/xlink" x="0px" y="0px"
	 width="263px" height="47.2px" viewBox="0 0 263 47.2" style="enable-background:new 0 0 263 47.2;" xml:space="preserve">
<style type="text/css">
	.st0{fill:#003299;}
</style>
<g>
	<path class="st0" d="M11.7,0.4c-1,0-2.1,0.3-2.8,0.9C7.2,2.6,6.4,4.4,6.4,6.7v4.1H1.7L1,15.3h5.4v1.5H0.6L0,21.2h6.4v3.1l0.1,1.7
		c0.8,3.1,2.6,4.6,5,4.6h21.8c1.3,0,2.4-0.5,3.5-1.4c1.2-1.5,1.8-3.1,1.8-4.5l-0.1-0.1H13.9v-3.3h8.7l0.6-4.5h-9.5v-1.5h9.6l0.6-4.5
		H13.6V6.9h24.9l0.1-0.1V0.4h-0.1H11.7z"/>
	<path class="st0" d="M67.1,0.4L67.1,0.4L67,24.8H49.4V0.5l-0.1-0.1h-7.2L42,0.5v24l0.1,1.7c0.8,3.1,2.6,4.6,5.1,4.6H69
		c1,0,1.9-0.3,2.7-0.8c1.7-1.4,2.6-3.2,2.6-5.5v-24l-0.1-0.1H67.1z"/>
	<path class="st0" d="M105.2,18.7c1,0,1.9-0.3,2.8-0.9c1.5-1.4,2.3-3.2,2.3-5.4v-6c0-0.6-0.1-1.2-0.3-1.8c-0.9-3.1-2.4-4.6-5-4.6
		H77.7l-0.1,0.1v30.5l0.1,0.1h7.3l0,0l0.1-23.9l0,0h17.7v5.6H85.8v0.1l15.5,18.1h10l0,0l-10.1-12.1
		C101.2,18.7,105.2,18.7,105.2,18.7z"/>
	<path class="st0" d="M141.3,0.3h-21.8c-1,0-2.1,0.3-2.8,0.9c-1.7,1.4-2.6,3.2-2.6,5.5v18l0.1,1.7c0.8,3.1,2.6,4.7,5.1,4.7h21.9
		c1,0,1.9-0.3,2.7-0.8c1.7-1.4,2.6-3.2,2.6-5.5v-18c0-0.6-0.1-1.3-0.3-2.1C145.5,1.7,143.8,0.3,141.3,0.3z M139.2,24.6h-17.7V6.9
		h17.7V24.6z"/>
	<path class="st0" d="M157,24.8v-24l-0.1-0.1h-7.2l-0.1,0.1v23.9l0.1,1.7c0.8,3.1,2.6,4.6,5,4.6h26.8l0.1-0.1V25l-0.1-0.1H157V24.8z
		"/>
	<polygon class="st0" points="185,0.6 184.9,0.8 184.9,30.4 185,30.5 191.9,30.5 192.1,30.4 192.1,0.8 191.9,0.6 	"/>
	<path class="st0" d="M220.5,0.9L220.4,1v22.3L206.7,0.9h-11.3L195.3,1v29.6l0.1,0.1h6.4l0.1-0.1V8.3l0,0l0,0h0.1
		c8.9,14.6,13.3,22.1,13.6,22.3h11.2l0.1-0.1V1l-0.1-0.1H220.5z"/>
	<path class="st0" d="M263,0.4L263,0.4h-10.9l-14.4,12.3v0.1l15.4,18h9.9l0,0l-14.8-17.4v-0.1C254.5,8,259.4,3.6,263,0.4z"/>
	<polygon class="st0" points="229.8,0.4 229.6,0.5 229.6,30.7 229.8,30.8 237,30.8 237.1,30.7 237.1,0.5 237,0.4 	"/>
</g>
<g>
	<path d="M19.2,40.2c-0.4-0.4-0.8-0.6-1.3-0.8c-0.5-0.1-0.9-0.3-1.4-0.3c-0.9,0-1.8,0.3-2.3,0.9c-0.6,0.6-0.9,1.4-0.9,2.4
		c0,0.9,0.3,1.8,0.9,2.3c0.6,0.6,1.3,0.9,2.2,0.9c0.5,0,1-0.1,1.5-0.3c0.5-0.1,0.9-0.5,1.4-0.9v1.7c-0.4,0.3-0.8,0.5-1.3,0.6
		c-0.5,0.1-0.9,0.3-1.4,0.3c-0.6,0-1.3-0.1-1.9-0.4c-0.5-0.3-1-0.5-1.5-1c-0.4-0.4-0.8-0.9-1-1.5c-0.3-0.5-0.4-1.2-0.4-1.8
		s0.1-1.3,0.4-1.8c0.3-0.5,0.5-1,1-1.5c0.4-0.4,0.9-0.8,1.5-1c0.5-0.3,1.2-0.4,1.8-0.4c0.5,0,1,0.1,1.5,0.3c0.5,0.1,0.9,0.4,1.4,0.6
		L19.2,40.2z"/>
	<path d="M34.9,42.5c0,0.6-0.1,1.2-0.4,1.8c-0.3,0.5-0.5,1-1,1.5c-0.5,0.4-1,0.8-1.5,1c-0.5,0.3-1.2,0.4-1.8,0.4
		c-0.6,0-1.3-0.1-1.8-0.4c-0.5-0.3-1-0.5-1.5-1c-0.4-0.4-0.8-0.9-1-1.5c-0.3-0.5-0.4-1.2-0.4-1.8s0.1-1.3,0.4-1.8
		c0.3-0.5,0.5-1,1-1.5c0.4-0.4,0.9-0.8,1.5-1c0.5-0.3,1.2-0.4,1.8-0.4c0.6,0,1.3,0.1,1.8,0.4c0.5,0.3,1,0.5,1.5,1
		c0.4,0.4,0.8,0.9,1,1.5C34.8,41.2,34.9,41.8,34.9,42.5z M33.5,42.5c0-0.4-0.1-0.9-0.3-1.3c-0.1-0.4-0.4-0.8-0.6-1
		c-0.3-0.3-0.6-0.5-1-0.8c-0.4-0.1-0.8-0.3-1.3-0.3c-0.4,0-0.9,0.1-1.3,0.3c-0.4,0.1-0.8,0.4-1,0.8c-0.3,0.3-0.5,0.6-0.6,1
		c-0.1,0.4-0.3,0.8-0.3,1.3c0,0.4,0.1,0.9,0.3,1.3c0.1,0.4,0.4,0.8,0.6,1c0.3,0.3,0.6,0.5,1,0.8c0.4,0.1,0.8,0.3,1.3,0.3
		c0.4,0,0.9-0.1,1.3-0.3c0.4-0.1,0.8-0.4,1-0.8c0.3-0.3,0.5-0.6,0.6-1C33.4,43.2,33.5,42.8,33.5,42.5z"/>
	<path d="M41.4,46.8v-9.1l5.6,5.4c0.1,0.1,0.3,0.3,0.5,0.5c0.1,0.1,0.3,0.4,0.5,0.6v-6.2h1.3v9.1l-5.6-5.5c-0.1-0.1-0.3-0.3-0.4-0.5
		c-0.1-0.1-0.3-0.4-0.4-0.5v6.2C43,46.8,41.4,46.8,41.4,46.8z"/>
	<path d="M55.8,45l1.2-0.5c0.1,0.4,0.3,0.6,0.6,0.9c0.3,0.3,0.6,0.3,1.2,0.3c0.4,0,0.8-0.1,1-0.4c0.3-0.3,0.4-0.5,0.4-0.9
		c0-0.5-0.4-1-1.3-1.4c-0.1,0-0.3-0.1-0.3-0.1c-1-0.5-1.7-0.9-1.9-1.3c-0.4-0.4-0.5-0.9-0.5-1.4c0-0.8,0.3-1.3,0.8-1.8
		c0.5-0.4,1.2-0.6,1.9-0.6c0.6,0,1.2,0.1,1.7,0.4c0.4,0.3,0.8,0.6,0.9,1l-1.2,0.5c-0.1-0.3-0.4-0.5-0.6-0.6
		c-0.3-0.1-0.5-0.1-0.8-0.1c-0.4,0-0.6,0.1-0.9,0.3c-0.3,0.3-0.4,0.5-0.4,0.8c0,0.5,0.5,1,1.5,1.5c0.1,0,0.1,0,0.1,0.1
		c0.9,0.4,1.4,0.8,1.8,1.2c0.4,0.4,0.5,0.9,0.5,1.4c0,0.8-0.3,1.5-0.8,1.9c-0.5,0.5-1.3,0.8-2.2,0.8c-0.8,0-1.4-0.1-1.8-0.5
		C56.3,46.2,55.9,45.7,55.8,45z"/>
	<path d="M68,38h1.4v5.4c0,0.8,0.1,1.4,0.5,1.8c0.4,0.4,0.9,0.6,1.7,0.6c0.8,0,1.3-0.3,1.7-0.6c0.4-0.4,0.5-1,0.5-1.8V38h1.4v5.5
		c0,1.2-0.3,2.1-0.9,2.7c-0.6,0.6-1.5,0.9-2.7,0.9s-2.1-0.3-2.7-0.9S68,44.6,68,43.5V38z"/>
	<path d="M82.1,46.8V38h1.4v7.6h3.2v1.3H82.1z"/>
	<path d="M94.9,39.3v7.6h-1.4v-7.6h-2.3v-1.2h6v1.2H94.9z"/>
	<path d="M108.2,46.8l-1-2.3h-3.5l-1,2.3h-1.5l4.2-9.1l4.2,9.1H108.2z M104.3,43.4h2.4l-0.9-2.1c0-0.1-0.1-0.3-0.1-0.4
		c0-0.1-0.1-0.4-0.1-0.5c0,0.1-0.1,0.4-0.1,0.5c0,0.1-0.1,0.3-0.1,0.5L104.3,43.4z"/>
	<path d="M115.5,46.8v-9.1l5.6,5.4c0.1,0.1,0.3,0.3,0.5,0.5c0.1,0.1,0.3,0.4,0.5,0.6v-6.2h1.3v9.1l-5.6-5.5
		c-0.1-0.1-0.3-0.3-0.4-0.5c-0.1-0.1-0.3-0.4-0.4-0.5v6.2C117,46.8,115.5,46.8,115.5,46.8z"/>
	<path d="M137.3,40.2c-0.4-0.4-0.8-0.6-1.3-0.8c-0.5-0.1-0.9-0.3-1.4-0.3c-0.9,0-1.8,0.3-2.3,0.9c-0.6,0.6-0.9,1.4-0.9,2.4
		c0,0.9,0.3,1.8,0.9,2.3c0.6,0.6,1.3,0.9,2.2,0.9c0.5,0,1-0.1,1.5-0.3c0.5-0.1,0.9-0.5,1.4-0.9v1.7c-0.4,0.3-0.8,0.5-1.3,0.6
		c-0.5,0.1-0.9,0.3-1.4,0.3c-0.6,0-1.3-0.1-1.9-0.4c-0.5-0.3-1-0.5-1.5-1c-0.4-0.4-0.8-0.9-1-1.5c-0.3-0.5-0.4-1.2-0.4-1.8
		s0.1-1.3,0.4-1.8c0.3-0.5,0.5-1,1-1.5c0.4-0.4,0.9-0.8,1.5-1c0.5-0.3,1.2-0.4,1.8-0.4c0.5,0,1,0.1,1.5,0.3c0.5,0.1,0.9,0.4,1.4,0.6
		L137.3,40.2z"/>
	<path d="M145.9,46.8v-4l-3-4.7h1.5l1.8,3c0,0.1,0.1,0.1,0.1,0.3c0.1,0.1,0.1,0.3,0.3,0.4c0-0.1,0.1-0.3,0.1-0.4
		c0-0.1,0.1-0.3,0.3-0.4l1.9-3h1.4l-3.1,4.7v4h-1.4L145.9,46.8L145.9,46.8z"/>
	<path d="M164.3,45l1.2-0.5c0.1,0.4,0.3,0.6,0.6,0.9c0.3,0.3,0.6,0.3,1.2,0.3c0.4,0,0.8-0.1,1-0.4c0.3-0.3,0.4-0.5,0.4-0.9
		c0-0.5-0.4-1-1.3-1.4c-0.1,0-0.3-0.1-0.3-0.1c-1-0.5-1.7-0.9-1.9-1.3c-0.4-0.4-0.5-0.9-0.5-1.4c0-0.8,0.3-1.3,0.8-1.8
		c0.5-0.4,1.2-0.6,1.9-0.6c0.6,0,1.2,0.1,1.7,0.4c0.4,0.3,0.8,0.6,0.9,1l-1.2,0.5c-0.1-0.3-0.4-0.5-0.6-0.6
		c-0.3-0.1-0.5-0.1-0.8-0.1c-0.4,0-0.6,0.1-0.9,0.3c-0.3,0.3-0.4,0.5-0.4,0.8c0,0.5,0.5,1,1.5,1.5c0.1,0,0.1,0,0.1,0.1
		c0.9,0.4,1.4,0.8,1.8,1.2c0.4,0.4,0.5,0.9,0.5,1.4c0,0.8-0.3,1.5-0.8,1.9c-0.5,0.5-1.3,0.8-2.2,0.8c-0.8,0-1.4-0.1-1.8-0.5
		C164.9,46.2,164.5,45.7,164.3,45z"/>
	<path d="M176.5,46.8V38h4.9v1.2h-3.5v2.2h3.5v1.3h-3.5v2.8h3.5v1.3h-4.9V46.8z"/>
	<path d="M189.4,42.8v4h-1.3V38h2.1c0.6,0,1,0,1.4,0.1c0.4,0.1,0.6,0.3,0.8,0.4c0.3,0.3,0.5,0.5,0.6,0.8c0.1,0.4,0.3,0.6,0.3,1.2
		c0,0.6-0.1,1.3-0.5,1.7c-0.4,0.4-0.9,0.6-1.5,0.8l3.1,4h-1.8L189.4,42.8L189.4,42.8z M189.5,41.7h0.3c0.8,0,1.3-0.1,1.5-0.3
		c0.3-0.1,0.4-0.5,0.4-0.9c0-0.5-0.1-0.8-0.4-1c-0.3-0.3-0.8-0.3-1.5-0.3h-0.3V41.7z"/>
	<path d="M202.7,47.2l-4-9.1h1.5l1.9,4.7c0.1,0.3,0.3,0.5,0.3,0.8c0.1,0.3,0.1,0.5,0.1,0.6c0-0.3,0.1-0.4,0.3-0.6
		c0.1-0.3,0.1-0.5,0.3-0.8l1.9-4.7h1.5L202.7,47.2z"/>
	<path d="M212.5,46.8V38h1.4v8.9H212.5z"/>
	<path d="M227.8,40.2c-0.4-0.4-0.8-0.6-1.3-0.8c-0.5-0.1-0.9-0.3-1.4-0.3c-0.9,0-1.8,0.3-2.3,0.9c-0.6,0.6-0.9,1.4-0.9,2.4
		c0,0.9,0.3,1.8,0.9,2.3c0.6,0.6,1.3,0.9,2.2,0.9c0.5,0,1-0.1,1.5-0.3c0.5-0.1,0.9-0.5,1.4-0.9v1.7c-0.4,0.3-0.8,0.5-1.3,0.6
		c-0.5,0.1-0.9,0.3-1.4,0.3c-0.6,0-1.3-0.1-1.9-0.4c-0.5-0.3-1-0.5-1.5-1c-0.4-0.4-0.8-0.9-1-1.5c-0.3-0.5-0.4-1.2-0.4-1.8
		s0.1-1.3,0.4-1.8c0.3-0.5,0.5-1,1-1.5c0.4-0.4,0.9-0.8,1.5-1c0.6-0.3,1.2-0.4,1.8-0.4c0.5,0,1,0.1,1.5,0.3c0.5,0.1,0.9,0.4,1.4,0.6
		L227.8,40.2z"/>
	<path d="M234.5,46.8V38h4.9v1.2h-3.3v2.2h3.5v1.3h-3.5v2.8h3.5v1.3h-5V46.8z"/>
	<path d="M245.6,45l1.2-0.5c0.1,0.4,0.3,0.6,0.6,0.9c0.3,0.3,0.6,0.3,1.2,0.3c0.4,0,0.8-0.1,1-0.4c0.3-0.3,0.4-0.5,0.4-0.9
		c0-0.5-0.4-1-1.3-1.4c-0.1,0-0.3-0.1-0.3-0.1c-1-0.5-1.7-0.9-1.9-1.3c-0.4-0.4-0.5-0.9-0.5-1.4c0-0.8,0.3-1.3,0.8-1.8
		c0.5-0.4,1.2-0.6,1.9-0.6c0.6,0,1.2,0.1,1.7,0.4c0.4,0.3,0.8,0.6,0.9,1l-1.2,0.5c-0.1-0.3-0.4-0.5-0.6-0.6
		c-0.3-0.1-0.5-0.1-0.8-0.1c-0.4,0-0.6,0.1-0.9,0.3c-0.3,0.3-0.4,0.5-0.4,0.8c0,0.5,0.5,1,1.5,1.5c0.1,0,0.1,0,0.1,0.1
		c0.9,0.4,1.4,0.8,1.8,1.2c0.4,0.4,0.5,0.9,0.5,1.4c0,0.8-0.3,1.5-0.8,1.9c-0.5,0.5-1.3,0.8-2.2,0.8c-0.8,0-1.4-0.1-1.8-0.5
		C245.9,46.2,245.7,45.7,245.6,45z"/>
</g>
</svg>
