<?xml version="1.0" encoding="utf-8"?>
<!-- Generator: Adobe Illustrator 22.1.0, SVG Export Plug-In . SVG Version: 6.00 Build 0)  -->
<svg version="1.1" id="Layer_1" xmlns="http://www.w3.org/2000/svg" xmlns:xlink="http://www.w3.org/1999/xlink" x="0px" y="0px"
	 width="205px" height="24.2px" viewBox="0 0 205 24.2" style="enable-background:new 0 0 205 24.2;" xml:space="preserve">
<style type="text/css">
	.st0{fill:#FFFFFF;}
</style>
<g>
	<path class="st0" d="M9.1,0.3C8.3,0.3,7.5,0.5,6.9,1C5.6,2,5,3.4,5,5.2v3.2H1.3l-0.5,3.5H5v1.2H0.5L0,16.5h5v2.4l0.1,1.3
		c0.6,2.4,2,3.6,3.9,3.6h17c1,0,1.9-0.4,2.7-1.1c0.9-1.2,1.4-2.4,1.4-3.5L30,19.1H10.8v-2.6h6.8l0.5-3.5h-7.4v-1.2h7.5l0.5-3.5h-8.1
		V5.4H30l0.1-0.1v-5H30C30,0.3,9.1,0.3,9.1,0.3z"/>
	<path class="st0" d="M52.3,0.3L52.3,0.3l-0.1,19H38.5V0.4l-0.1-0.1h-5.6l-0.1,0.1v18.7l0.1,1.3c0.6,2.4,2,3.6,4,3.6h17
		c0.8,0,1.5-0.2,2.1-0.6c1.3-1.1,2-2.5,2-4.3V0.4l-0.1-0.1H52.3z"/>
	<path class="st0" d="M82,14.6c0.8,0,1.5-0.2,2.2-0.7c1.2-1.1,1.8-2.5,1.8-4.2V5c0-0.5-0.1-0.9-0.2-1.4C85.1,1.2,83.9,0,81.9,0H60.6
		l-0.1,0.1v23.8l0.1,0.1h5.7l0,0l0.1-18.6l0,0h13.8v4.4H66.9v0.1L79,24h7.8l0,0l-7.9-9.4H82z"/>
	<path class="st0" d="M110.1,0.2h-17c-0.8,0-1.6,0.2-2.2,0.7c-1.3,1.1-2,2.5-2,4.3v14l0.1,1.3c0.6,2.4,2,3.7,4,3.7h17.1
		c0.8,0,1.5-0.2,2.1-0.6c1.3-1.1,2-2.5,2-4.3v-14c0-0.5-0.1-1-0.2-1.6C113.4,1.3,112.1,0.2,110.1,0.2z M108.5,19.2H94.7V5.4h13.8
		V19.2z"/>
	<path class="st0" d="M122.4,19.3V0.6l-0.1-0.1h-5.6l-0.1,0.1v18.6l0.1,1.3c0.6,2.4,2,3.6,3.9,3.6h20.9l0.1-0.1v-4.5l-0.1-0.1h-19.1
		V19.3z"/>
	<polygon class="st0" points="144.2,0.5 144.1,0.6 144.1,23.7 144.2,23.8 149.6,23.8 149.7,23.7 149.7,0.6 149.6,0.5 	"/>
	<path class="st0" d="M171.9,0.7l-0.1,0.1v17.4L161.1,0.7h-8.8l-0.1,0.1v23.1l0.1,0.1h5l0.1-0.1V6.5l0,0l0,0h0.1
		c6.9,11.4,10.4,17.2,10.6,17.4h8.7l0.1-0.1v-23l-0.1-0.1C176.8,0.7,171.9,0.7,171.9,0.7z"/>
	<path class="st0" d="M205,0.3L205,0.3h-8.5l-11.2,9.6V10l12,14h7.7l0,0l-11.5-13.6v-0.1C198.4,6.2,202.2,2.8,205,0.3z"/>
	<polygon class="st0" points="179.1,0.3 179,0.4 179,23.9 179.1,24 184.7,24 184.8,23.9 184.8,0.4 184.7,0.3 	"/>
</g>
</svg>
