<?xml version="1.0" encoding="utf-8"?>
<!-- Generator: Adobe Illustrator 22.1.0, SVG Export Plug-In . SVG Version: 6.00 Build 0)  -->
<svg version="1.1" id="Layer_1" xmlns="http://www.w3.org/2000/svg" xmlns:xlink="http://www.w3.org/1999/xlink" x="0px" y="0px"
	 width="512px" height="512px" viewBox="0 0 512 512" style="enable-background:new 0 0 512 512;" xml:space="preserve">
<style type="text/css">
	.st0{fill:#003299;}
	.st1{fill:#FFE15A;}
</style>
<path class="st0" d="M503.2,423.7H8.8c-4.9,0-8.8-4-8.8-8.8V97.1c0-4.9,4-8.8,8.8-8.8h494.3c4.9,0,8.8,4,8.8,8.8v317.8
	C512,419.8,508,423.7,503.2,423.7z"/>
<g>
	<path class="st1" d="M259.6,126.7l3.5,10.6l11.2,0.1c1.4,0,2,1.9,0.9,2.7l-9,6.6l3.4,10.7c0.4,1.4-1.1,2.5-2.3,1.7l-9.1-6.5
		l-9.1,6.5c-1.2,0.8-2.8-0.3-2.3-1.7l3.4-10.7l-9-6.6c-1.2-0.9-0.6-2.7,0.9-2.7l11.2-0.1l3.5-10.6
		C257.2,125.3,259.1,125.3,259.6,126.7z"/>
	<path class="st1" d="M259.6,354.5l3.5,10.6l11.2,0.1c1.4,0,2,1.9,0.9,2.7l-9,6.6l3.4,10.7c0.4,1.4-1.1,2.5-2.3,1.7l-9.1-6.5
		l-9.1,6.5c-1.2,0.8-2.8-0.3-2.3-1.7l3.4-10.7l-9-6.6c-1.2-0.9-0.6-2.7,0.9-2.7l11.2-0.1l3.5-10.6
		C257.2,353.2,259.1,353.2,259.6,354.5z"/>
	<path class="st1" d="M373.5,240.6l3.5,10.6l11.2,0.1c1.4,0,2,1.9,0.9,2.7l-9,6.6l3.4,10.7c0.4,1.4-1.1,2.5-2.3,1.7l-9.1-6.5
		L363,273c-1.2,0.8-2.8-0.3-2.3-1.7l3.4-10.7l-9-6.6c-1.2-0.9-0.6-2.7,0.9-2.7l11.2-0.1l3.5-10.6
		C371.1,239.2,373.1,239.2,373.5,240.6z"/>
	<path class="st1" d="M145.7,240.6l3.5,10.6l11.2,0.1c1.4,0,2,1.9,0.9,2.7l-9,6.6l3.4,10.7c0.4,1.4-1.1,2.5-2.3,1.7l-9.1-6.5
		l-9.1,6.5c-1.2,0.8-2.8-0.3-2.3-1.7l3.4-10.7l-9-6.6c-1.2-0.9-0.6-2.7,0.9-2.7l11.2-0.1l3.5-10.6
		C143.3,239.2,145.2,239.2,145.7,240.6z"/>
	<path class="st1" d="M162.8,181.1l3.5,10.6l11.2,0.1c1.4,0,2,1.9,0.9,2.7l-9,6.6l3.4,10.7c0.4,1.4-1.1,2.5-2.3,1.7l-9.1-6.5
		l-9.1,6.5c-1.2,0.8-2.8-0.3-2.3-1.7l3.4-10.7l-9-6.6c-1.2-0.9-0.6-2.7,0.9-2.7l11.2-0.1l3.5-10.6
		C160.4,179.7,162.3,179.7,162.8,181.1z"/>
	<path class="st1" d="M360.1,295.1l3.5,10.6l11.2,0.1c1.4,0,2,1.9,0.9,2.7l-9,6.6l3.4,10.7c0.4,1.4-1.1,2.5-2.3,1.7l-9.1-6.5
		l-9.1,6.5c-1.2,0.8-2.8-0.3-2.3-1.7l3.4-10.7l-9-6.6c-1.2-0.9-0.6-2.7,0.9-2.7l11.2-0.1l3.5-10.6
		C357.7,293.7,359.6,293.7,360.1,295.1z"/>
	<path class="st1" d="M318.4,139.4l3.5,10.6l11.2,0.1c1.4,0,2,1.9,0.9,2.7l-9,6.6l3.4,10.7c0.4,1.4-1.1,2.5-2.3,1.7l-9.1-6.5
		l-9.1,6.5c-1.2,0.8-2.8-0.3-2.3-1.7l3.4-10.7l-9-6.6c-1.2-0.9-0.6-2.7,0.9-2.7L312,150l3.5-10.6C316,138,317.9,138,318.4,139.4z"/>
	<path class="st1" d="M204.5,336.8l3.5,10.6l11.2,0.1c1.4,0,2,1.9,0.9,2.7l-9,6.6l3.4,10.7c0.4,1.4-1.1,2.5-2.3,1.7l-9.1-6.5
		l-9.1,6.5c-1.2,0.8-2.8-0.3-2.3-1.7l3.4-10.7l-9-6.6c-1.2-0.9-0.6-2.7,0.9-2.7l11.2-0.1l3.5-10.6
		C202.1,335.4,204,335.4,204.5,336.8z"/>
	<path class="st1" d="M357.2,181.1l-3.5,10.6l-11.2,0.1c-1.4,0-2,1.9-0.9,2.7l9,6.6l-3.4,10.7c-0.4,1.4,1.1,2.5,2.3,1.7l9.1-6.5
		l9.1,6.5c1.2,0.8,2.8-0.3,2.3-1.7l-3.4-10.7l9-6.6c1.2-0.9,0.6-2.7-0.9-2.7l-11.2-0.1l-3.5-10.6
		C359.6,179.7,357.7,179.7,357.2,181.1z"/>
	<path class="st1" d="M159.9,295.1l-3.5,10.6l-11.2,0.1c-1.4,0-2,1.9-0.9,2.7l9,6.6l-3.4,10.7c-0.4,1.4,1.1,2.5,2.3,1.7l9.1-6.5
		l9.1,6.5c1.2,0.8,2.8-0.3,2.3-1.7l-3.4-10.7l9-6.6c1.2-0.9,0.6-2.7-0.9-2.7l-11.2-0.1l-3.5-10.6
		C162.3,293.7,160.4,293.7,159.9,295.1z"/>
	<path class="st1" d="M201.6,139.4l-3.5,10.6l-11.2,0.1c-1.4,0-2,1.9-0.9,2.7l9,6.6l-3.4,10.7c-0.4,1.4,1.1,2.5,2.3,1.7l9.1-6.5
		l9.1,6.5c1.2,0.8,2.8-0.3,2.3-1.7l-3.4-10.7l9-6.6c1.2-0.9,0.6-2.7-0.9-2.7L208,150l-3.5-10.6C204,138,202.1,138,201.6,139.4z"/>
	<path class="st1" d="M315.5,336.8l-3.5,10.6l-11.2,0.1c-1.4,0-2,1.9-0.9,2.7l9,6.6l-3.4,10.7c-0.4,1.4,1.1,2.5,2.3,1.7l9.1-6.5
		l9.1,6.5c1.2,0.8,2.8-0.3,2.3-1.7l-3.4-10.7l9-6.6c1.2-0.9,0.6-2.7-0.9-2.7l-11.2-0.1l-3.5-10.6C317.9,335.4,316,335.4,315.5,336.8
		z"/>
</g>
</svg>
