<?xml version="1.0" encoding="utf-8"?>
<!-- Generator: Adobe Illustrator 22.1.0, SVG Export Plug-In . SVG Version: 6.00 Build 0)  -->
<svg version="1.1" id="Layer_1" xmlns="http://www.w3.org/2000/svg" xmlns:xlink="http://www.w3.org/1999/xlink" x="0px" y="0px"
	 width="205px" height="109px" viewBox="0 0 205 109" style="enable-background:new 0 0 205 109;" xml:space="preserve">
<style type="text/css">
	.st0{fill:#003299;}
	.st1{fill:#683D99;}
	.st2{fill:url(#SVGID_1_);}
	.st3{fill:url(#SVGID_2_);}
	.st4{fill:url(#SVGID_3_);}
	.st5{fill:url(#SVGID_4_);}
	.st6{fill:url(#SVGID_5_);}
	.st7{fill:url(#SVGID_6_);}
	.st8{fill:url(#SVGID_7_);}
	.st9{fill:url(#SVGID_8_);}
	.st10{fill:url(#SVGID_9_);}
	.st11{fill:url(#SVGID_10_);}
</style>
<g>
	<path class="st0" d="M9.1,72.5c-0.8,0-1.6,0.2-2.2,0.7c-1.3,1-1.9,2.4-1.9,4.2v3.2H1.3l-0.5,3.5H5v1.2H0.5L0,88.7h5v2.4l0.1,1.3
		C5.7,94.8,7.1,96,9,96h17c1,0,1.9-0.4,2.7-1.1c0.9-1.2,1.4-2.4,1.4-3.5L30,91.3H10.8v-2.6h6.8l0.5-3.5h-7.4V84h7.5l0.5-3.5h-8.1
		v-2.9H30l0.1-0.1v-5l-0.1,0H9.1z"/>
	<path class="st0" d="M52.3,72.5L52.3,72.5l-0.1,19H38.5V72.6l-0.1-0.1h-5.6l-0.1,0.1v18.7l0.1,1.3c0.6,2.4,2,3.6,4,3.6h17
		c0.8,0,1.5-0.2,2.1-0.6c1.3-1.1,2-2.5,2-4.3V72.6l-0.1-0.1H52.3z"/>
	<path class="st0" d="M82,86.8c0.8,0,1.5-0.2,2.2-0.7c1.2-1.1,1.8-2.5,1.8-4.2v-4.7c0-0.5-0.1-0.9-0.2-1.4c-0.7-2.4-1.9-3.6-3.9-3.6
		H60.6l-0.1,0.1v23.8l0.1,0.1h5.7l0,0l0.1-18.6l0,0h13.8V82H66.9v0.1L79,96.2h7.8l0,0l-7.9-9.4C78.9,86.8,82,86.8,82,86.8z"/>
	<path class="st0" d="M110.1,72.4h-17c-0.8,0-1.6,0.2-2.2,0.7c-1.3,1.1-2,2.5-2,4.3v14l0.1,1.3c0.6,2.4,2,3.7,4,3.7h17.1
		c0.8,0,1.5-0.2,2.1-0.6c1.3-1.1,2-2.5,2-4.3v-14c0-0.5-0.1-1-0.2-1.6C113.4,73.5,112.1,72.4,110.1,72.4z M108.5,91.4H94.7V77.6
		h13.8V91.4z"/>
	<path class="st0" d="M122.4,91.5V72.8l-0.1-0.1h-5.6l-0.1,0.1v18.6l0.1,1.3c0.6,2.4,2,3.6,3.9,3.6h20.9l0.1-0.1v-4.5l-0.1-0.1
		h-19.1V91.5z"/>
	<polygon class="st0" points="144.2,72.7 144.1,72.8 144.1,95.9 144.2,96 149.6,96 149.7,95.9 149.7,72.8 149.6,72.7 	"/>
	<path class="st0" d="M171.9,72.9l-0.1,0.1v17.4l-10.7-17.5h-8.8l-0.1,0.1v23.1l0.1,0.1h5l0.1-0.1V78.7l0,0l0,0h0.1
		c6.9,11.4,10.4,17.2,10.6,17.4h8.7l0.1-0.1V73l-0.1-0.1H171.9z"/>
	<path class="st0" d="M205,72.5L205,72.5h-8.5l-11.2,9.6v0.1l12,14h7.7l0,0l-11.5-13.6v-0.1C198.4,78.4,202.2,75,205,72.5z"/>
	<polygon class="st0" points="179.1,72.5 179,72.6 179,96.1 179.1,96.2 184.7,96.2 184.8,96.1 184.8,72.6 184.7,72.5 	"/>
</g>
<g>
	<g>
		<polygon class="st1" points="75.8,46.7 62.2,38.9 49.4,46.2 75.8,61.3 102.1,46.2 89.3,38.9 		"/>
		<polygon class="st1" points="62.6,23.6 62.6,37.8 75,30.7 		"/>
		<polygon class="st1" points="89.3,22.5 102.1,15.1 75.8,0 62.6,7.6 62.6,22.2 75.8,14.7 		"/>
		<polygon class="st1" points="61.8,8 49,15.3 49,45.6 61.8,38.2 		"/>
		<polygon class="st1" points="143.6,38.5 156,45.6 156,31.3 		"/>
		<polygon class="st1" points="129.6,15.8 129.6,30 142,22.9 		"/>
		<polygon class="st1" points="142.4,7.6 129.6,0.2 129.6,14.9 142.4,22.2 		"/>
		
			<radialGradient id="SVGID_1_" cx="24.013" cy="103.5607" r="34.6914" gradientTransform="matrix(1 0 0 -1 0 109.8898)" gradientUnits="userSpaceOnUse">
			<stop  offset="0" style="stop-color:#119EE6"/>
			<stop  offset="0.25" style="stop-color:#7952AB"/>
			<stop  offset="0.5" style="stop-color:#CA177D"/>
			<stop  offset="0.75" style="stop-color:#EA2127"/>
			<stop  offset="1" style="stop-color:#FE9D3F"/>
		</radialGradient>
		<polygon class="st2" points="129.2,46.7 115.7,38.9 102.9,46.2 129.2,61.3 155.6,46.2 142.8,38.9 		"/>
		<path class="st1" d="M125.2,2.3c-1.3,0.8-2.7,1.6-4.2,2.4c-1.4,0.8-2.9,1.6-4.4,2.5s-2.9,1.7-4.3,2.4c-3.2,1.9-6.5,3.7-9.8,5.7v16
			l0,0l-12.4,7.1l12.4,7.1l0,0l0,0l12.8-7.3V22.7l13.6-7.8V0.2C127.7,0.9,126.5,1.6,125.2,2.3z"/>
	</g>
	<g>
		
			<radialGradient id="SVGID_2_" cx="116.7818" cy="62.5078" r="76.7219" gradientTransform="matrix(1 0 0 -1 0 109.8898)" gradientUnits="userSpaceOnUse">
			<stop  offset="0" style="stop-color:#119EE6"/>
			<stop  offset="0.25" style="stop-color:#7952AB"/>
			<stop  offset="0.5" style="stop-color:#CA177D"/>
			<stop  offset="0.75" style="stop-color:#EA2127"/>
			<stop  offset="1" style="stop-color:#FE9D3F"/>
		</radialGradient>
		<polygon class="st3" points="75.8,46.7 62.2,38.9 49.4,46.2 75.8,61.3 102.1,46.2 89.3,38.9 		"/>
		
			<radialGradient id="SVGID_3_" cx="116.7818" cy="62.5078" r="76.7219" gradientTransform="matrix(1 0 0 -1 0 109.8898)" gradientUnits="userSpaceOnUse">
			<stop  offset="0" style="stop-color:#119EE6"/>
			<stop  offset="0.25" style="stop-color:#7952AB"/>
			<stop  offset="0.5" style="stop-color:#CA177D"/>
			<stop  offset="0.75" style="stop-color:#EA2127"/>
			<stop  offset="1" style="stop-color:#FE9D3F"/>
		</radialGradient>
		<polygon class="st4" points="62.6,23.6 62.6,37.8 75,30.7 		"/>
		
			<radialGradient id="SVGID_4_" cx="116.7818" cy="62.5078" r="76.7219" gradientTransform="matrix(1 0 0 -1 0 109.8898)" gradientUnits="userSpaceOnUse">
			<stop  offset="0" style="stop-color:#119EE6"/>
			<stop  offset="0.25" style="stop-color:#7952AB"/>
			<stop  offset="0.5" style="stop-color:#CA177D"/>
			<stop  offset="0.75" style="stop-color:#EA2127"/>
			<stop  offset="1" style="stop-color:#FE9D3F"/>
		</radialGradient>
		<polygon class="st5" points="89.3,22.5 102.1,15.1 75.8,0 62.6,7.6 62.6,22.2 75.8,14.7 		"/>
		
			<radialGradient id="SVGID_5_" cx="116.7818" cy="62.5078" r="76.7219" gradientTransform="matrix(1 0 0 -1 0 109.8898)" gradientUnits="userSpaceOnUse">
			<stop  offset="0" style="stop-color:#119EE6"/>
			<stop  offset="0.25" style="stop-color:#7952AB"/>
			<stop  offset="0.5" style="stop-color:#CA177D"/>
			<stop  offset="0.75" style="stop-color:#EA2127"/>
			<stop  offset="1" style="stop-color:#FE9D3F"/>
		</radialGradient>
		<polygon class="st6" points="61.8,8 49,15.3 49,45.6 61.8,38.2 		"/>
		
			<radialGradient id="SVGID_6_" cx="116.7818" cy="62.5078" r="76.7219" gradientTransform="matrix(1 0 0 -1 0 109.8898)" gradientUnits="userSpaceOnUse">
			<stop  offset="0" style="stop-color:#119EE6"/>
			<stop  offset="0.25" style="stop-color:#7952AB"/>
			<stop  offset="0.5" style="stop-color:#CA177D"/>
			<stop  offset="0.75" style="stop-color:#EA2127"/>
			<stop  offset="1" style="stop-color:#FE9D3F"/>
		</radialGradient>
		<polygon class="st7" points="143.6,38.5 156,45.6 156,31.3 		"/>
		
			<radialGradient id="SVGID_7_" cx="116.7818" cy="62.5078" r="76.7219" gradientTransform="matrix(1 0 0 -1 0 109.8898)" gradientUnits="userSpaceOnUse">
			<stop  offset="0" style="stop-color:#119EE6"/>
			<stop  offset="0.25" style="stop-color:#7952AB"/>
			<stop  offset="0.5" style="stop-color:#CA177D"/>
			<stop  offset="0.75" style="stop-color:#EA2127"/>
			<stop  offset="1" style="stop-color:#FE9D3F"/>
		</radialGradient>
		<polygon class="st8" points="129.6,15.8 129.6,30 142,22.9 		"/>
		
			<radialGradient id="SVGID_8_" cx="116.7818" cy="62.5078" r="76.7219" gradientTransform="matrix(1 0 0 -1 0 109.8898)" gradientUnits="userSpaceOnUse">
			<stop  offset="0" style="stop-color:#119EE6"/>
			<stop  offset="0.25" style="stop-color:#7952AB"/>
			<stop  offset="0.5" style="stop-color:#CA177D"/>
			<stop  offset="0.75" style="stop-color:#EA2127"/>
			<stop  offset="1" style="stop-color:#FE9D3F"/>
		</radialGradient>
		<polygon class="st9" points="142.4,7.6 129.6,0.2 129.6,14.9 142.4,22.2 		"/>
		
			<radialGradient id="SVGID_9_" cx="116.7818" cy="62.5078" r="76.7219" gradientTransform="matrix(1 0 0 -1 0 109.8898)" gradientUnits="userSpaceOnUse">
			<stop  offset="0" style="stop-color:#119EE6"/>
			<stop  offset="0.25" style="stop-color:#7952AB"/>
			<stop  offset="0.5" style="stop-color:#CA177D"/>
			<stop  offset="0.75" style="stop-color:#EA2127"/>
			<stop  offset="1" style="stop-color:#FE9D3F"/>
		</radialGradient>
		<polygon class="st10" points="129.2,46.7 115.7,38.9 102.9,46.2 129.2,61.3 155.6,46.2 142.8,38.9 		"/>
		
			<radialGradient id="SVGID_10_" cx="116.7818" cy="62.5078" r="76.7219" gradientTransform="matrix(1 0 0 -1 0 109.8898)" gradientUnits="userSpaceOnUse">
			<stop  offset="0" style="stop-color:#119EE6"/>
			<stop  offset="0.25" style="stop-color:#7952AB"/>
			<stop  offset="0.5" style="stop-color:#CA177D"/>
			<stop  offset="0.75" style="stop-color:#EA2127"/>
			<stop  offset="1" style="stop-color:#FE9D3F"/>
		</radialGradient>
		<path class="st11" d="M125.2,2.3c-1.3,0.8-2.7,1.6-4.2,2.4c-1.4,0.8-2.9,1.6-4.4,2.5s-2.9,1.7-4.3,2.4c-3.2,1.9-6.5,3.7-9.8,5.7
			v16l0,0l-12.4,7.1l12.4,7.1l0,0l0,0l12.8-7.3V22.7l13.6-7.8V0.2C127.7,0.9,126.5,1.6,125.2,2.3z"/>
	</g>
</g>
<g>
	<path d="M15,103.5c-0.3-0.3-0.6-0.5-1-0.6s-0.7-0.2-1.1-0.2c-0.7,0-1.4,0.2-1.8,0.7c-0.5,0.5-0.7,1.1-0.7,1.9
		c0,0.7,0.2,1.4,0.7,1.8c0.5,0.5,1,0.7,1.7,0.7c0.4,0,0.8-0.1,1.2-0.2s0.7-0.4,1.1-0.7v1.3c-0.3,0.2-0.6,0.4-1,0.5s-0.7,0.2-1.1,0.2
		c-0.5,0-1-0.1-1.5-0.3c-0.4-0.2-0.8-0.4-1.2-0.8c-0.3-0.3-0.6-0.7-0.8-1.2c-0.2-0.4-0.3-0.9-0.3-1.4s0.1-1,0.3-1.4s0.4-0.8,0.8-1.2
		c0.3-0.3,0.7-0.6,1.2-0.8c0.4-0.2,0.9-0.3,1.4-0.3c0.4,0,0.8,0.1,1.2,0.2s0.7,0.3,1.1,0.5L15,103.5z"/>
	<path d="M27.2,105.3c0,0.5-0.1,0.9-0.3,1.4c-0.2,0.4-0.4,0.8-0.8,1.2c-0.4,0.3-0.8,0.6-1.2,0.8c-0.4,0.2-0.9,0.3-1.4,0.3
		s-1-0.1-1.4-0.3c-0.4-0.2-0.8-0.4-1.2-0.8c-0.3-0.3-0.6-0.7-0.8-1.2c-0.2-0.4-0.3-0.9-0.3-1.4s0.1-1,0.3-1.4
		c0.2-0.4,0.4-0.8,0.8-1.2c0.3-0.3,0.7-0.6,1.2-0.8c0.4-0.2,0.9-0.3,1.4-0.3s1,0.1,1.4,0.3c0.4,0.2,0.8,0.4,1.2,0.8
		c0.3,0.3,0.6,0.7,0.8,1.2C27.1,104.3,27.2,104.8,27.2,105.3z M26.1,105.3c0-0.3-0.1-0.7-0.2-1s-0.3-0.6-0.5-0.8
		c-0.2-0.2-0.5-0.4-0.8-0.6c-0.3-0.1-0.6-0.2-1-0.2c-0.3,0-0.7,0.1-1,0.2s-0.6,0.3-0.8,0.6c-0.2,0.2-0.4,0.5-0.5,0.8s-0.2,0.6-0.2,1
		c0,0.3,0.1,0.7,0.2,1s0.3,0.6,0.5,0.8c0.2,0.2,0.5,0.4,0.8,0.6c0.3,0.1,0.6,0.2,1,0.2c0.3,0,0.7-0.1,1-0.2s0.6-0.3,0.8-0.6
		c0.2-0.2,0.4-0.5,0.5-0.8C26,105.9,26.1,105.6,26.1,105.3z"/>
	<path d="M32.3,108.7v-7.1l4.4,4.2c0.1,0.1,0.2,0.2,0.4,0.4c0.1,0.1,0.2,0.3,0.4,0.5v-4.8h1v7.1l-4.4-4.3c-0.1-0.1-0.2-0.2-0.3-0.4
		c-0.1-0.1-0.2-0.3-0.3-0.4v4.8C33.5,108.7,32.3,108.7,32.3,108.7z"/>
	<path d="M43.5,107.3l0.9-0.4c0.1,0.3,0.2,0.5,0.5,0.7c0.2,0.2,0.5,0.2,0.9,0.2c0.3,0,0.6-0.1,0.8-0.3c0.2-0.2,0.3-0.4,0.3-0.7
		c0-0.4-0.3-0.8-1-1.1c-0.1,0-0.2-0.1-0.2-0.1c-0.8-0.4-1.3-0.7-1.5-1c-0.3-0.3-0.4-0.7-0.4-1.1c0-0.6,0.2-1,0.6-1.4
		c0.4-0.3,0.9-0.5,1.5-0.5c0.5,0,0.9,0.1,1.3,0.3c0.3,0.2,0.6,0.5,0.7,0.8l-0.9,0.4c-0.1-0.2-0.3-0.4-0.5-0.5s-0.4-0.1-0.6-0.1
		c-0.3,0-0.5,0.1-0.7,0.2c-0.2,0.2-0.3,0.4-0.3,0.6c0,0.4,0.4,0.8,1.2,1.2c0.1,0,0.1,0,0.1,0.1c0.7,0.3,1.1,0.6,1.4,0.9
		c0.3,0.3,0.4,0.7,0.4,1.1c0,0.6-0.2,1.2-0.6,1.5c-0.4,0.4-1,0.6-1.7,0.6c-0.6,0-1.1-0.1-1.4-0.4C43.9,108.2,43.6,107.8,43.5,107.3z
		"/>
	<path d="M53,101.8h1.1v4.2c0,0.6,0.1,1.1,0.4,1.4c0.3,0.3,0.7,0.5,1.3,0.5s1-0.2,1.3-0.5s0.4-0.8,0.4-1.4v-4.2h1.1v4.3
		c0,0.9-0.2,1.6-0.7,2.1s-1.2,0.7-2.1,0.7s-1.6-0.2-2.1-0.7S53,107,53,106.1V101.8z"/>
	<path d="M64,108.7v-6.9h1.1v5.9h2.5v1H64z"/>
	<path d="M74,102.8v5.9h-1.1v-5.9h-1.8v-0.9h4.7v0.9H74z"/>
	<path d="M84.3,108.7l-0.8-1.8h-2.7l-0.8,1.8h-1.2l3.3-7.1l3.3,7.1H84.3z M81.3,106h1.9l-0.7-1.6c0-0.1-0.1-0.2-0.1-0.3
		c0-0.1-0.1-0.3-0.1-0.4c0,0.1-0.1,0.3-0.1,0.4s-0.1,0.2-0.1,0.4L81.3,106z"/>
	<path d="M90,108.7v-7.1l4.4,4.2c0.1,0.1,0.2,0.2,0.4,0.4c0.1,0.1,0.2,0.3,0.4,0.5v-4.8h1v7.1l-4.4-4.3c-0.1-0.1-0.2-0.2-0.3-0.4
		c-0.1-0.1-0.2-0.3-0.3-0.4v4.8C91.2,108.7,90,108.7,90,108.7z"/>
	<path d="M107,103.5c-0.3-0.3-0.6-0.5-1-0.6s-0.7-0.2-1.1-0.2c-0.7,0-1.4,0.2-1.8,0.7c-0.5,0.5-0.7,1.1-0.7,1.9
		c0,0.7,0.2,1.4,0.7,1.8c0.5,0.5,1,0.7,1.7,0.7c0.4,0,0.8-0.1,1.2-0.2c0.4-0.1,0.7-0.4,1.1-0.7v1.3c-0.3,0.2-0.6,0.4-1,0.5
		s-0.7,0.2-1.1,0.2c-0.5,0-1-0.1-1.5-0.3c-0.4-0.2-0.8-0.4-1.2-0.8c-0.3-0.3-0.6-0.7-0.8-1.2c-0.2-0.4-0.3-0.9-0.3-1.4
		s0.1-1,0.3-1.4c0.2-0.4,0.4-0.8,0.8-1.2c0.3-0.3,0.7-0.6,1.2-0.8c0.4-0.2,0.9-0.3,1.4-0.3c0.4,0,0.8,0.1,1.2,0.2
		c0.4,0.1,0.7,0.3,1.1,0.5L107,103.5z"/>
	<path d="M113.7,108.7v-3.1l-2.3-3.7h1.2l1.4,2.3c0,0.1,0.1,0.1,0.1,0.2c0.1,0.1,0.1,0.2,0.2,0.3c0-0.1,0.1-0.2,0.1-0.3
		c0-0.1,0.1-0.2,0.2-0.3l1.5-2.3h1.1l-2.4,3.7v3.1h-1.1V108.7z"/>
	<path d="M128.1,107.3l0.9-0.4c0.1,0.3,0.2,0.5,0.5,0.7c0.2,0.2,0.5,0.2,0.9,0.2c0.3,0,0.6-0.1,0.8-0.3c0.2-0.2,0.3-0.4,0.3-0.7
		c0-0.4-0.3-0.8-1-1.1c-0.1,0-0.2-0.1-0.2-0.1c-0.8-0.4-1.3-0.7-1.5-1c-0.3-0.3-0.4-0.7-0.4-1.1c0-0.6,0.2-1,0.6-1.4
		c0.4-0.3,0.9-0.5,1.5-0.5c0.5,0,0.9,0.1,1.3,0.3c0.3,0.2,0.6,0.5,0.7,0.8l-0.9,0.4c-0.1-0.2-0.3-0.4-0.5-0.5s-0.4-0.1-0.6-0.1
		c-0.3,0-0.5,0.1-0.7,0.2c-0.2,0.2-0.3,0.4-0.3,0.6c0,0.4,0.4,0.8,1.2,1.2c0.1,0,0.1,0,0.1,0.1c0.7,0.3,1.1,0.6,1.4,0.9
		c0.3,0.3,0.4,0.7,0.4,1.1c0,0.6-0.2,1.2-0.6,1.5c-0.4,0.4-1,0.6-1.7,0.6c-0.6,0-1.1-0.1-1.4-0.4
		C128.5,108.2,128.2,107.8,128.1,107.3z"/>
	<path d="M137.6,108.7v-6.9h3.8v0.9h-2.7v1.7h2.7v1h-2.7v2.2h2.7v1h-3.8V108.7z"/>
	<path d="M147.6,105.6v3.1h-1v-6.9h1.6c0.5,0,0.8,0,1.1,0.1s0.5,0.2,0.6,0.3c0.2,0.2,0.4,0.4,0.5,0.6c0.1,0.3,0.2,0.5,0.2,0.9
		c0,0.5-0.1,1-0.4,1.3c-0.3,0.3-0.7,0.5-1.2,0.6l2.4,3.1H150L147.6,105.6L147.6,105.6z M147.7,104.7h0.2c0.6,0,1-0.1,1.2-0.2
		s0.3-0.4,0.3-0.7c0-0.4-0.1-0.6-0.3-0.8c-0.2-0.2-0.6-0.2-1.2-0.2h-0.2V104.7z"/>
	<path d="M158,109l-3.1-7.1h1.2l1.5,3.7c0.1,0.2,0.2,0.4,0.2,0.6c0.1,0.2,0.1,0.4,0.1,0.5c0-0.2,0.1-0.3,0.2-0.5s0.1-0.4,0.2-0.6
		l1.5-3.7h1.2L158,109z"/>
	<path d="M165.6,108.7v-6.9h1.1v6.9H165.6z"/>
	<path d="M177.6,103.5c-0.3-0.3-0.6-0.5-1-0.6s-0.7-0.2-1.1-0.2c-0.7,0-1.4,0.2-1.8,0.7c-0.5,0.5-0.7,1.1-0.7,1.9
		c0,0.7,0.2,1.4,0.7,1.8c0.5,0.5,1,0.7,1.7,0.7c0.4,0,0.8-0.1,1.2-0.2s0.7-0.4,1.1-0.7v1.3c-0.3,0.2-0.6,0.4-1,0.5s-0.7,0.2-1.1,0.2
		c-0.5,0-1-0.1-1.5-0.3c-0.4-0.2-0.8-0.4-1.2-0.8c-0.3-0.3-0.6-0.7-0.8-1.2c-0.2-0.4-0.3-0.9-0.3-1.4s0.1-1,0.3-1.4s0.4-0.8,0.8-1.2
		c0.3-0.3,0.7-0.6,1.2-0.8s0.9-0.3,1.4-0.3c0.4,0,0.8,0.1,1.2,0.2s0.7,0.3,1.1,0.5L177.6,103.5z"/>
	<path d="M182.8,108.7v-6.9h3.8v0.9H184v1.7h2.7v1H184v2.2h2.7v1h-3.9V108.7z"/>
	<path d="M191.4,107.3l0.9-0.4c0.1,0.3,0.2,0.5,0.5,0.7c0.2,0.2,0.5,0.2,0.9,0.2c0.3,0,0.6-0.1,0.8-0.3c0.2-0.2,0.3-0.4,0.3-0.7
		c0-0.4-0.3-0.8-1-1.1c-0.1,0-0.2-0.1-0.2-0.1c-0.8-0.4-1.3-0.7-1.5-1c-0.3-0.3-0.4-0.7-0.4-1.1c0-0.6,0.2-1,0.6-1.4
		c0.4-0.3,0.9-0.5,1.5-0.5c0.5,0,0.9,0.1,1.3,0.3c0.3,0.2,0.6,0.5,0.7,0.8l-0.9,0.4c-0.1-0.2-0.3-0.4-0.5-0.5s-0.4-0.1-0.6-0.1
		c-0.3,0-0.5,0.1-0.7,0.2c-0.2,0.2-0.3,0.4-0.3,0.6c0,0.4,0.4,0.8,1.2,1.2c0.1,0,0.1,0,0.1,0.1c0.7,0.3,1.1,0.6,1.4,0.9
		c0.3,0.3,0.4,0.7,0.4,1.1c0,0.6-0.2,1.2-0.6,1.5c-0.4,0.4-1,0.6-1.7,0.6c-0.6,0-1.1-0.1-1.4-0.4
		C191.7,108.2,191.5,107.8,191.4,107.3z"/>
</g>
</svg>
