<?xml version="1.0" encoding="utf-8"?>
<!-- Generator: Adobe Illustrator 22.1.0, SVG Export Plug-In . SVG Version: 6.00 Build 0)  -->
<svg version="1.1" id="Layer_1" xmlns="http://www.w3.org/2000/svg" xmlns:xlink="http://www.w3.org/1999/xlink" x="0px" y="0px"
	 width="235.5px" height="21.7px" viewBox="0 0 235.5 21.7" style="enable-background:new 0 0 235.5 21.7;" xml:space="preserve">
<style type="text/css">
	.st0{fill:#CD1976;}
</style>
<g>
	<g>
		<path class="st0" d="M10,14c0,0.1-0.7,1-2.1,2.8c-0.4,0.6-0.9,1.1-1.3,1.5C6,18.7,5.8,19,5.4,19.3c-0.4,0.3-0.6,0.5-1,0.6
			c-0.3,0.2-0.6,0.3-0.9,0.4c-0.2,0.2-0.4,0.2-0.8,0.2c-0.3,0-0.5-0.1-0.9-0.2c-0.3-0.1-0.5-0.3-0.8-0.4c-0.3-0.2-0.4-0.4-0.6-0.5
			S0.2,19,0.2,18.9s-0.1-0.2-0.1-0.3C0,18.6,0,18.5,0,18.3c0-0.1,0-0.2,0.1-0.3C0.2,18,0.3,18,0.4,18c0,0,0.1,0,0.2,0
			c0.2,0.2,0.4,0.3,0.6,0.4s0.4,0.1,0.6,0.1c0.5,0,1-0.1,1.4-0.3C3.6,18,4,17.7,4.4,17.4c0.4-0.3,0.6-0.6,0.9-1.1
			c0.3-0.4,0.6-0.9,1-1.5c0.4-0.6,0.7-1.1,0.9-1.4c0.2-0.4,0.4-0.6,0.4-0.9c-0.3-0.6-0.5-1.2-0.8-1.9C6.5,10.1,6.2,9.4,6,8.9
			S5.3,7.8,5.1,7.3C4.8,6.9,4.4,6.4,4.2,6s-0.6-0.7-0.9-1c-0.4-0.2-0.7-0.3-1-0.3c-0.2,0-0.3,0-0.4,0.1S1.7,5,1.6,5.1
			C1.5,5.2,1.5,5.2,1.5,5.2c0,0.1,0,0.2,0,0.3c0,0.1,0,0.2,0,0.4c0,0.1,0,0.2,0,0.3c0,0.1,0,0.2-0.1,0.3s-0.1,0-0.2,0
			C1.1,6.4,1,6.3,0.9,6.1C0.8,6,0.6,5.8,0.5,5.5c-0.1-0.3-0.1-0.6-0.2-1c0-0.4-0.1-0.7-0.1-1.2c0-0.1,0-0.3,0.1-0.4
			c0.1-0.2,0.2-0.3,0.4-0.4c0.2-0.1,0.4-0.2,0.5-0.3C1.4,2.3,1.7,2.3,2,2.3c0.8,0,1.6,0.2,2.2,0.6c0.7,0.4,1.3,1,1.9,1.7
			c0.6,0.7,1.2,1.5,1.6,2.5c0.5,1,1,2,1.4,3c0.4-0.8,0.8-1.5,1.2-2.2c0.4-0.8,0.8-1.5,1.2-2.1s0.6-1.2,0.9-1.8
			c0.3-0.5,0.4-1,0.6-1.2c0.1-0.1,0.3-0.3,0.5-0.4c0.3-0.1,0.5-0.2,0.8-0.2c0.2,0,0.3,0,0.4,0.1c0.2,0,0.3,0.1,0.4,0.2
			s0.2,0.2,0.3,0.4c0.1,0.2,0.1,0.4,0.1,0.5c0,0.3-0.1,0.7-0.3,1.1c-0.2,0.4-0.4,0.9-0.7,1.5c-0.3,0.6-0.6,1.2-1.1,2
			c-0.4,0.7-0.9,1.5-1.3,2.4c-0.4,0.9-1,1.7-1.6,2.6L10,14z"/>
		<path class="st0" d="M20.5,11.1c0.2,0.4,0.4,0.9,0.4,1.3c0.1,0.4,0.2,1,0.2,1.6c0,0.4-0.1,0.9-0.2,1.2c-0.1,0.4-0.3,0.9-0.4,1.2
			c-0.2,0.4-0.4,0.8-0.6,1.2c-0.3,0.4-0.5,0.6-0.9,0.9c-0.4,0.3-0.7,0.4-1.1,0.6c-0.4,0.2-0.8,0.3-1.2,0.3c-0.6,0-1.2-0.2-1.6-0.4
			c-0.4-0.3-0.8-0.6-1.1-1.1c-0.3-0.4-0.5-1-0.6-1.5c-0.1-0.5-0.2-1.2-0.2-1.7c0-1,0.1-1.8,0.4-2.5c0.3-0.7,0.5-1.2,1-1.8
			c0.4-0.5,1-0.9,1.6-1.2c0.6-0.3,1.3-0.4,2.1-0.4c0.7,0,1.3,0.1,2,0.4c0.6,0.2,1.2,0.5,1.7,0.9c0.5,0.4,1,0.8,1.4,1.3
			c0.4,0.5,0.9,1.1,1.2,1.5l-0.2,1.5c-0.2-0.3-0.4-0.5-0.8-0.8c-0.4-0.3-0.7-0.6-1.1-1c-0.4-0.4-0.7-0.7-1.1-0.9
			C21.1,11.6,20.8,11.4,20.5,11.1L20.5,11.1z M17.2,17.3c0.3,0,0.4-0.1,0.7-0.4s0.4-0.5,0.6-1c0.2-0.4,0.3-0.8,0.4-1.3
			c0.1-0.5,0.2-1,0.2-1.4c0-0.4,0-0.6-0.1-0.9c-0.1-0.3-0.1-0.5-0.3-0.7c-0.2-0.2-0.3-0.4-0.4-0.5c-0.2-0.1-0.4-0.2-0.5-0.2
			c-0.3,0-0.5,0.1-0.8,0.4s-0.5,0.5-0.7,1c-0.2,0.4-0.4,0.8-0.4,1.3c-0.1,0.4-0.2,1-0.2,1.6c0,0.3,0,0.6,0.1,0.9
			c0.1,0.3,0.2,0.5,0.3,0.7c0.1,0.2,0.3,0.4,0.4,0.4C16.6,17.3,16.9,17.3,17.2,17.3z"/>
		<path class="st0" d="M31.2,9.4c0,0.2,0,0.4,0,0.8s-0.1,0.7-0.1,1.1c-0.1,0.4-0.2,0.9-0.3,1.4c-0.1,0.5-0.2,1-0.3,1.4
			c-0.1,0.4-0.1,0.7-0.2,1c-0.1,0.3-0.1,0.4-0.1,0.6s0,0.4,0,0.5s0,0.4,0.1,0.4c0,0.1,0.1,0.3,0.2,0.3c0.1,0.1,0.2,0.1,0.3,0.1
			c0.2,0,0.4,0,0.5-0.1c0.3-0.1,0.4-0.2,0.7-0.4c0.3-0.1,0.5-0.3,0.8-0.4c0.3-0.2,0.5-0.4,0.8-0.5s0.4-0.4,0.6-0.5s0.4-0.4,0.4-0.5
			c0,0.3,0,0.4,0,0.6s0,0.4,0,0.5s0,0.4,0,0.5s0,0.4,0,0.6c-0.2,0.2-0.4,0.4-0.6,0.5s-0.5,0.4-0.8,0.5c-0.3,0.2-0.6,0.4-0.9,0.5
			c-0.4,0.2-0.6,0.3-1,0.4c-0.4,0.2-0.6,0.3-1,0.3s-0.6,0.1-0.9,0.1c-0.3,0-0.5-0.1-0.7-0.2s-0.4-0.3-0.5-0.4
			c-0.2-0.2-0.3-0.4-0.4-0.7c-0.1-0.3-0.2-0.5-0.3-0.9c-0.3,0.4-0.5,0.6-0.8,0.9c-0.3,0.3-0.6,0.5-0.9,0.7c-0.3,0.2-0.6,0.4-0.9,0.4
			c-0.3,0.1-0.6,0.2-0.9,0.2s-0.4,0-0.6-0.1s-0.4-0.2-0.5-0.4s-0.3-0.4-0.4-0.7s-0.2-0.7-0.2-1.2c0-1,0.1-1.7,0.2-2.1
			c0.2-0.7,0.4-1.8,0.6-3.3c0-0.1,0.1-0.3,0.1-0.4c0-0.2,0.1-0.4,0.2-0.6c0.1-0.2,0.2-0.4,0.3-0.6c0.1-0.3,0.2-0.4,0.4-0.6
			c0.2-0.2,0.3-0.4,0.4-0.4s0.4-0.2,0.6-0.2c0.4,0,0.6,0.1,0.8,0.2c0.2,0.1,0.3,0.3,0.3,0.4c-0.1,0.4-0.2,1-0.2,1.4
			c-0.1,0.4-0.2,0.9-0.3,1.3c-0.1,0.4-0.2,1-0.3,1.5c-0.1,0.5-0.2,1-0.3,1.3c-0.1,0.4-0.1,0.6-0.2,0.8s0.2,0.4,0.2,0.4
			c0,0.1,0,0.3,0,0.4c0,0.1,0.1,0.3,0.1,0.4c0.1,0.1,0.1,0.2,0.2,0.3s0.2,0.1,0.3,0.1c0.2,0,0.4,0,0.4-0.1c0.2-0.1,0.4-0.2,0.4-0.4
			c0.2-0.2,0.3-0.4,0.4-0.5c0.1-0.3,0.2-0.4,0.3-0.8l1.2-5.9c0-0.2,0.2-0.4,0.4-0.4s0.5-0.2,0.8-0.2c0.4,0,0.6,0.1,0.8,0.2
			C31.1,9.1,31.2,9.2,31.2,9.4z"/>
		<path class="st0" d="M33.6,17.2c0-0.4,0-0.7,0.1-1.1c0-0.4,0.1-0.9,0.2-1.3c0.1-0.4,0.1-1,0.2-1.4c0.1-0.4,0.2-1,0.4-1.5
			c0.1-0.5,0.3-1,0.4-1.3c0.1-0.4,0.2-0.6,0.3-0.9c0.1-0.2,0.1-0.3,0.2-0.4s0.1-0.2,0.2-0.2C35.5,9,35.6,9,35.7,9c0.1,0,0.3,0,0.4,0
			s0.4,0,0.4,0c0.1,0,0.2,0.1,0.3,0.1c0.1,0.1,0.1,0.2,0.1,0.3c0,0.1,0,0.3,0,0.5c0,0.3,0,0.6-0.1,1.2c0,0.4-0.1,0.9,0,1.2h0.1
			c0.2-0.3,0.4-0.6,0.5-1.2c0.2-0.5,0.4-0.9,0.7-1.2c0.3-0.3,0.5-0.5,0.8-0.8c0.3-0.3,0.6-0.4,1.1-0.4c0.2,0,0.3,0,0.4,0.1
			C40.5,9,40.7,9,40.7,9.1c0.1,0.1,0.2,0.2,0.3,0.4c-0.1,0.1-0.1,0.2-0.1,0.4c0,0.1,0,0.3-0.1,0.5c0,0.2-0.1,0.5-0.2,0.9
			c-0.1,0.4-0.2,0.6-0.2,0.9s-0.1,0.4-0.1,0.5c0,0.3,0,0.4,0.1,0.6c0.1,0.2,0.1,0.3,0.2,0.4c0.1,0.2,0.2,0.2,0.3,0.2
			c0.1,0,0.2,0.1,0.4,0.1c0.4,0,0.6-0.1,1-0.2c0.4-0.2,0.6-0.3,1-0.4c0.4-0.2,0.6-0.4,1-0.7L44,15.1c-0.2,0.1-0.4,0.3-0.6,0.4
			s-0.5,0.3-0.8,0.4c-0.3,0.1-0.5,0.3-0.8,0.4c-0.3,0.1-0.6,0.2-0.9,0.2c-0.5,0-1-0.1-1.3-0.4c-0.4-0.2-0.6-0.5-0.8-0.9
			c-0.2-0.4-0.4-0.7-0.4-1.2c-0.1-0.4-0.2-0.9-0.3-1.3h-0.2l-2,5.3c-0.1,0.3-0.2,0.5-0.3,0.7c-0.1,0.2-0.2,0.4-0.3,0.4
			c-0.1,0.1-0.2,0.2-0.3,0.3c-0.1,0.1-0.3,0.1-0.4,0.1c-0.3,0-0.5-0.1-0.7-0.2s-0.4-0.3-0.4-0.5c-0.1-0.2-0.2-0.4-0.2-0.7
			C33.6,17.7,33.6,17.4,33.6,17.2z"/>
		<path class="st0" d="M53.2,0.7c1.2,0,2.2,0.1,3.1,0.3s1.7,0.4,2.4,0.8S60,2.5,60.5,3c0.4,0.4,0.9,1,1.2,1.5
			c0.3,0.5,0.5,1.2,0.6,1.8c0.1,0.6,0.2,1.2,0.2,2c0,0.9-0.1,1.9-0.3,2.9s-0.5,2-0.9,2.8c-0.4,0.9-0.9,1.7-1.4,2.5
			c-0.5,0.8-1.2,1.4-2,2c-0.7,0.5-1.5,1-2.4,1.3c-0.9,0.4-1.8,0.5-2.8,0.5c-0.4,0-0.7,0-1-0.1c-0.4-0.1-0.7-0.1-1-0.2
			c-0.4-0.1-0.6-0.2-0.9-0.3s-0.5-0.3-0.8-0.4c-0.1,0-0.2-0.1-0.2-0.1c-0.1,0-0.1-0.1-0.1-0.2s-0.1-0.1-0.1-0.2s0-0.2,0-0.3
			c0-1.2,0-2.4,0.1-3.6c0.1-1.2,0.2-2.5,0.4-3.8s0.4-2.5,0.8-3.5c0.4-1,0.8-2,1.4-2.8c0.2-0.2,0.6-0.4,1.3-0.4
			c0.6,0,1.1,0.2,1.3,0.6c-0.4,0.4-0.6,1-0.8,1.5c-0.3,0.5-0.4,1.1-0.5,1.6c-0.2,0.5-0.3,1.1-0.4,1.7c-0.2,1.2-0.3,1.8-0.3,1.9
			c0,0-0.1,0.7-0.3,2c-0.1,0.4-0.1,0.9-0.2,1.2c0,0.4-0.1,0.6-0.1,0.9c0,0.3,0,0.5,0,0.8s0,0.4,0,0.6c0,0.2,0.1,0.4,0.1,0.4
			c0.1,0.1,0.2,0.2,0.4,0.3c0.2,0.1,0.4,0.1,0.5,0.1c0.7,0,1.4-0.2,2-0.4c0.6-0.3,1.2-0.6,1.8-1.2c0.5-0.4,1.1-1.1,1.5-1.7
			c0.4-0.6,0.8-1.3,1.1-2.2c0.3-0.8,0.5-1.6,0.7-2.3C59.9,9.9,60,9.2,60,8.5c0-0.8-0.2-1.6-0.4-2.2c-0.3-0.6-0.6-1.2-1.2-1.7
			c-0.5-0.4-1.1-0.8-1.8-1.1c-0.7-0.3-1.4-0.4-2.3-0.4c-0.6,0-1.2,0-1.8,0.1c-0.6,0.1-1.2,0.2-1.6,0.4c-0.5,0.2-1,0.4-1.3,0.5
			c-0.4,0.2-0.7,0.5-0.9,0.8c-0.5,0.8-1,1.4-1.3,1.9c-0.4,0.4-0.6,0.6-0.9,0.6C46.1,7.4,46,7,46,6.3c0-0.7,0.1-1.3,0.3-1.9
			s0.4-1.1,0.8-1.5s0.7-0.8,1.2-1.1c0.4-0.3,1-0.5,1.5-0.7c0.5-0.2,1.1-0.4,1.7-0.4C52,0.8,52.6,0.7,53.2,0.7z"/>
		<path class="st0" d="M63.8,17.2c0-0.4,0-0.7,0.1-1.1c0-0.4,0.1-0.9,0.2-1.3c0.1-0.4,0.1-1,0.2-1.4c0.1-0.4,0.2-1,0.4-1.5
			c0.1-0.5,0.3-1,0.4-1.3c0.1-0.4,0.2-0.6,0.3-0.9c0.1-0.2,0.1-0.3,0.2-0.4c0.1-0.1,0.1-0.2,0.2-0.2C65.7,9,65.7,9,65.8,9
			c0.1,0,0.3,0,0.4,0s0.4,0,0.4,0c0.1,0,0.2,0.1,0.3,0.1c0.1,0.1,0.1,0.2,0.1,0.3c0,0.1,0,0.3,0,0.5c0,0.3,0,0.6-0.1,1.2
			c0,0.4-0.1,0.9,0,1.2h0.1c0.2-0.3,0.4-0.6,0.5-1.2c0.2-0.5,0.4-0.9,0.7-1.2c0.3-0.3,0.5-0.5,0.8-0.8c0.3-0.3,0.6-0.4,1.1-0.4
			c0.2,0,0.3,0,0.4,0.1s0.3,0.1,0.4,0.2c0.1,0.1,0.2,0.2,0.3,0.4c0.1,0.1,0.1,0.3,0.1,0.4c0,0.1,0,0.3-0.1,0.5
			c0,0.2-0.1,0.5-0.2,0.9c-0.1,0.4-0.2,0.6-0.2,0.9c0,0.3-0.1,0.4-0.1,0.5c0,0.3,0,0.4,0.1,0.6c0.1,0.2,0.1,0.3,0.2,0.4
			c0.1,0.2,0.2,0.2,0.3,0.2s0.2,0.1,0.4,0.1c0.4,0,0.6-0.1,1-0.2c0.4-0.2,0.6-0.3,1-0.4s0.6-0.4,1-0.7l-0.2,2.5
			c-0.2,0.1-0.4,0.3-0.6,0.4s-0.5,0.3-0.8,0.4c-0.3,0.1-0.5,0.3-0.8,0.4c-0.3,0.1-0.6,0.2-0.9,0.2c-0.5,0-1-0.1-1.3-0.4
			c-0.4-0.2-0.6-0.5-0.8-0.9c-0.2-0.4-0.4-0.7-0.4-1.2c-0.1-0.4-0.2-0.9-0.3-1.3h-0.2l-2,5.3c-0.1,0.3-0.2,0.5-0.3,0.7
			c-0.1,0.2-0.2,0.4-0.3,0.4c-0.1,0.1-0.2,0.2-0.3,0.3c-0.1,0.1-0.3,0.1-0.4,0.1c-0.3,0-0.5-0.1-0.7-0.2c-0.2-0.1-0.4-0.3-0.4-0.5
			c-0.1-0.2-0.2-0.4-0.2-0.7C63.8,17.7,63.8,17.4,63.8,17.2z"/>
		<path class="st0" d="M76.7,19.4c-0.7,0-1.2-0.1-1.8-0.4c-0.5-0.3-0.9-0.6-1.2-1c-0.4-0.4-0.6-0.9-0.7-1.4
			c-0.2-0.5-0.3-1.2-0.3-1.8c0-0.4,0.1-0.9,0.3-1.4c0.2-0.5,0.3-1.1,0.4-1.4c0.2-0.4,0.4-0.8,0.6-1.2c0.3-0.4,0.5-0.7,0.9-1
			c0.4-0.3,0.7-0.5,1.1-0.7c0.4-0.2,0.9-0.3,1.3-0.3c0.4,0,0.8,0.1,1.2,0.2s0.6,0.3,0.9,0.5c0.3,0.3,0.4,0.5,0.6,0.8
			c0.2,0.4,0.2,0.7,0.2,1.1c0,0.4-0.2,0.9-0.4,1.4c-0.3,0.5-0.6,1-1,1.4c-0.4,0.4-0.9,0.7-1.4,1.1c-0.5,0.4-1.2,0.5-1.8,0.7
			c0.1,0.2,0.2,0.4,0.4,0.4c0.1,0.1,0.2,0.3,0.4,0.3c0.1,0.1,0.2,0.1,0.4,0.2c0.1,0,0.3,0,0.4,0c0.4,0,0.9-0.1,1.3-0.3
			c0.4-0.2,1-0.4,1.4-0.6c0.4-0.3,0.9-0.5,1.2-0.8c0.4-0.3,0.7-0.6,1-0.9l1.4,1.4c-0.6,0.7-1.3,1.2-2,1.8c-0.3,0.2-0.6,0.4-1,0.6
			c-0.4,0.2-0.7,0.4-1.2,0.5c-0.4,0.2-0.8,0.3-1.2,0.4C77.5,19.4,77.1,19.4,76.7,19.4z M75.3,14.3c0.3,0,0.5-0.1,0.9-0.2
			c0.3-0.1,0.6-0.3,0.9-0.5c0.3-0.2,0.5-0.4,0.8-0.8s0.4-0.6,0.4-0.9c0-0.4-0.1-0.5-0.2-0.8c-0.1-0.3-0.3-0.3-0.4-0.3
			c-0.3,0-0.5,0.1-0.8,0.2c-0.2,0.1-0.4,0.3-0.5,0.4c-0.2,0.2-0.3,0.4-0.4,0.6s-0.2,0.5-0.4,0.9c-0.1,0.4-0.2,0.6-0.2,0.8
			C75.4,14,75.3,14.1,75.3,14.3z"/>
		<path class="st0" d="M92.4,16.7c-0.2,0.3-0.4,0.5-0.6,0.8c-0.3,0.4-0.6,0.6-0.9,0.9c-0.3,0.3-0.7,0.5-1.1,0.7s-0.8,0.3-1.2,0.3
			c-0.4,0-0.9-0.2-1.2-0.4c-0.4-0.3-0.6-0.7-0.8-1.3c-0.2,0.2-0.4,0.4-0.6,0.6c-0.3,0.2-0.5,0.4-0.8,0.5c-0.3,0.2-0.6,0.3-1,0.4
			s-0.6,0.2-1,0.2s-0.7-0.1-1-0.2c-0.4-0.2-0.6-0.4-0.9-0.6c-0.3-0.3-0.4-0.6-0.6-1c-0.2-0.4-0.3-0.8-0.3-1.2c0-0.5,0.1-1.1,0.3-1.7
			c0.2-0.6,0.4-1.2,0.7-1.9c0.4-0.6,0.6-1.2,1-1.7c0.4-0.4,0.8-0.9,1.2-1.2C84.2,9.5,84.6,9.3,85,9c0.4-0.3,1-0.4,1.4-0.4
			c0.2,0,0.3,0,0.4,0.1C86.9,8.8,87,8.9,87.1,9c0.1,0.1,0.1,0.2,0.2,0.3s0.1,0.2,0.2,0.2c0.1,0,0.2,0.1,0.3,0.1s0.2,0,0.3,0
			c0.1,0,0.2,0,0.3,0c0.1,0,0.2,0,0.3,0c0.1,0,0.2,0,0.3,0s0.2,0.1,0.3,0.2c0.1,0.1,0.1,0.2,0.2,0.3c0.1,0.1,0.1,0.3,0.1,0.5
			c0,0.4,0,0.7-0.1,1.2s-0.2,0.9-0.3,1.2c-0.1,0.4-0.2,1-0.4,1.5c-0.1,0.5-0.2,1.1-0.2,1.4c0,0.4,0,0.6,0.1,0.8
			c0.1,0.2,0.2,0.3,0.4,0.3c0.2,0,0.3,0,0.4-0.1c0.2-0.1,0.4-0.2,0.5-0.3c0.2-0.1,0.4-0.3,0.5-0.4c0.2-0.2,0.4-0.3,0.4-0.4
			c0.4-0.4,0.7-0.8,1.1-1.3L92.4,16.7z M83.3,15.9c0,0.2,0,0.4,0,0.5c0,0.2,0.1,0.4,0.2,0.4s0.2,0.3,0.3,0.4
			c0.1,0.1,0.3,0.1,0.4,0.1c0.3,0,0.5-0.1,0.7-0.4s0.4-0.5,0.5-0.8c0.2-0.4,0.3-0.6,0.4-1c0.1-0.4,0.2-0.6,0.2-0.9l0.8-3.5
			c-0.3,0-0.6,0.1-0.9,0.2c-0.3,0.2-0.5,0.4-0.8,0.6c-0.3,0.3-0.4,0.5-0.7,0.9c-0.2,0.4-0.4,0.7-0.6,1.2c-0.2,0.4-0.4,0.9-0.4,1.2
			C83.3,15.3,83.3,15.6,83.3,15.9z"/>
		<path class="st0" d="M96.1,17.4c0-0.1,0-0.3,0-0.4c0-0.2,0-0.4,0.1-0.6c0-0.3,0.1-0.4,0.1-0.7c0-0.3,0.1-0.5,0.1-0.7
			c0.1-0.5,0.2-1.2,0.3-1.9h-0.2c-0.1,0.1-0.2,0.3-0.3,0.4c-0.1,0.2-0.3,0.5-0.4,1c-0.2,0.4-0.4,1-0.8,1.6c-0.4,0.7-0.7,1.5-1.2,2.5
			c-0.2,0.3-0.3,0.4-0.5,0.6c-0.2,0.1-0.4,0.2-0.6,0.2c-0.3,0-0.5-0.1-0.7-0.2s-0.4-0.3-0.4-0.5c-0.1-0.2-0.2-0.4-0.2-0.7
			s-0.1-0.5-0.1-0.8s0-0.6,0.1-1.1c0-0.4,0.1-0.8,0.2-1.2c0.1-0.4,0.2-1,0.3-1.5c0.1-0.5,0.2-1.1,0.3-1.5c0.1-0.4,0.2-0.8,0.3-1.2
			c0.1-0.4,0.2-0.6,0.3-0.9c0.1-0.3,0.2-0.4,0.2-0.5c0.1-0.2,0.2-0.3,0.2-0.4c0.1-0.1,0.2-0.1,0.3-0.2c0.1,0,0.3,0,0.4,0
			c0.3,0,0.4,0,0.6,0c0.2,0,0.3,0.1,0.4,0.1c0.1,0.1,0.1,0.2,0.2,0.3c0,0.1,0,0.3,0,0.5c0,0.1,0,0.3,0,0.4c0,0.2,0,0.4-0.1,0.5
			c0,0.2,0,0.4-0.1,0.5c-0.1,0.4-0.1,0.5-0.1,0.5c-0.1,0.5-0.2,1.1-0.4,1.7l0.1,0.1c0,0,0.1-0.2,0.3-0.5c0.2-0.4,0.4-0.7,0.5-1.1
			c0.2-0.4,0.4-0.7,0.6-1.2c0.3-0.4,0.4-0.7,0.7-1.1c0.2-0.3,0.4-0.5,0.6-0.7c0.3-0.2,0.5-0.3,0.8-0.3c0.3,0,0.5,0.1,0.8,0.3
			c0.3,0.2,0.4,0.4,0.4,0.7c0,0.3,0,0.5-0.1,0.8c0,0.4-0.1,0.5-0.1,0.7c-0.1,0.2-0.1,0.4-0.2,0.7c-0.1,0.3-0.2,0.6-0.3,1.1
			c0,0.1,0,0.2-0.1,0.4v0.1l0.1,0.1c0,0,0.1-0.2,0.3-0.5c0.2-0.4,0.4-0.7,0.6-1.1c0.2-0.4,0.4-0.7,0.7-1.2c0.3-0.4,0.4-0.7,0.7-1.1
			c0.2-0.3,0.4-0.5,0.6-0.7c0.2-0.2,0.4-0.3,0.8-0.3s0.6,0.1,0.9,0.3c0.3,0.2,0.4,0.4,0.4,0.7c0,0.5,0,1-0.1,1.4s-0.1,1-0.3,1.5
			c-0.1,0.5-0.2,1.1-0.3,1.5c-0.1,0.4-0.1,0.9-0.1,1.4c0,0.4,0.1,0.7,0.2,1c0.1,0.3,0.3,0.4,0.4,0.4c0.2,0,0.3,0,0.4-0.1
			s0.4-0.2,0.5-0.3c0.2-0.1,0.4-0.2,0.5-0.4c0.2-0.2,0.4-0.3,0.4-0.4c0.4-0.4,0.7-0.7,1.1-1.2l0.2,2.6c-0.4,0.3-0.6,0.5-1,0.8
			c-0.4,0.3-0.6,0.5-1,0.7c-0.4,0.2-0.7,0.4-1.2,0.5s-0.9,0.2-1.4,0.2c-0.3,0-0.4-0.1-0.6-0.3c-0.2-0.2-0.4-0.4-0.4-0.7
			c-0.1-0.3-0.2-0.6-0.3-1.1s-0.1-0.8-0.1-1.3c0-0.4,0-1,0.1-1.4c0-0.5,0.1-1.1,0.2-1.5h-0.2l-2.2,5.5c-0.2,0.3-0.4,0.5-0.6,0.6
			c-0.3,0.1-0.5,0.2-0.8,0.2c-0.3,0-0.4-0.1-0.5-0.2c-0.2-0.1-0.3-0.3-0.4-0.4s-0.1-0.4-0.2-0.6C96.1,17.9,96.1,17.7,96.1,17.4z"/>
		<path class="st0" d="M107.3,20.2c0-0.1,0.1-0.2,0.1-0.4s0.1-0.3,0.1-0.4c0.1-0.2,0.1-0.4,0.2-0.5c0.1-0.2,0.1-0.4,0.2-0.5
			c0.1-0.4,0.3-0.9,0.4-1.3c0-0.2,0.1-0.3,0.2-0.4s0.2-0.2,0.4-0.3c0.1-0.1,0.3-0.1,0.4-0.2c0.2,0,0.4-0.1,0.4-0.1
			c0.2,0,0.4,0,0.6,0.1c0.2,0.1,0.4,0.2,0.5,0.3c0.2,0.1,0.3,0.3,0.4,0.4c0.1,0.2,0.2,0.4,0.2,0.5s0,0.3-0.1,0.4
			c-0.1,0.2-0.1,0.3-0.2,0.4c-0.2,0.2-0.3,0.4-0.4,0.7c-0.2,0.3-0.4,0.5-0.4,0.7c-0.2,0.3-0.4,0.4-0.4,0.7s-0.3,0.4-0.4,0.6
			c-0.2,0.3-0.4,0.4-0.5,0.5c-0.2,0.1-0.4,0.2-0.6,0.2c-0.3,0-0.4-0.1-0.6-0.3c-0.2-0.2-0.3-0.4-0.3-0.6
			C107.2,20.5,107.2,20.4,107.3,20.2z"/>
		<path class="st0" d="M124.5,21.5c-1.1,0-2-0.2-2.8-0.6c-0.9-0.4-1.6-1.1-2.2-1.8c-0.6-0.8-1.1-1.7-1.4-2.8
			c-0.4-1.1-0.4-2.2-0.4-3.6c0-0.7,0.1-1.4,0.2-2.1c0.1-0.7,0.3-1.4,0.4-2.2c0.2-0.7,0.4-1.4,0.8-2.1c0.3-0.7,0.6-1.3,1.1-2
			c0.4-0.6,0.9-1.2,1.3-1.7c0.5-0.5,1.1-1,1.7-1.3s1.2-0.7,2-0.9s1.3-0.4,2.1-0.4c1.1,0,2,0.2,2.8,0.6s1.6,0.9,2.1,1.6
			c0.6,0.7,1.1,1.5,1.3,2.5s0.4,2,0.4,3.2c0,1-0.1,2-0.3,3c-0.2,1.1-0.4,2-0.8,3c-0.4,1-0.8,2-1.3,2.8s-1.2,1.7-1.9,2.4
			c-0.7,0.7-1.5,1.2-2.4,1.6C126.5,21.3,125.5,21.5,124.5,21.5z M124.8,18.9c0.5,0,1.1-0.1,1.6-0.4c0.5-0.3,1-0.5,1.3-0.9
			c0.4-0.4,0.8-0.9,1.2-1.3c0.4-0.4,0.6-1.1,0.9-1.7c0.3-0.6,0.5-1.2,0.7-1.9c0.2-0.6,0.4-1.2,0.5-1.9s0.3-1.2,0.3-1.8
			c0.1-0.6,0.1-1.1,0.1-1.6c0-0.7-0.1-1.3-0.3-2C131,5,130.8,4.4,130.4,4c-0.3-0.4-0.7-0.8-1.2-1.1c-0.4-0.3-1-0.4-1.6-0.4
			c-0.6,0-1.3,0.2-2,0.4c-0.6,0.4-1.2,0.7-1.8,1.3c-0.6,0.6-1.1,1.2-1.5,1.9s-0.8,1.5-1.2,2.3c-0.4,0.8-0.5,1.6-0.7,2.4
			c-0.2,0.8-0.3,1.6-0.3,2.4c0,0.8,0.1,1.6,0.3,2.3c0.2,0.7,0.5,1.3,0.9,1.9c0.4,0.5,0.9,0.9,1.4,1.2
			C123.5,18.9,124.1,18.9,124.8,18.9z"/>
		<path class="st0" d="M143.4,9.4c0,0.2,0,0.4,0,0.8s-0.1,0.7-0.1,1.1c-0.1,0.4-0.2,0.9-0.3,1.4c-0.1,0.5-0.2,1-0.3,1.4
			c-0.1,0.4-0.1,0.7-0.2,1c-0.1,0.3-0.1,0.4-0.1,0.6s0,0.4,0,0.5s0,0.4,0.1,0.4c0,0.1,0.1,0.3,0.2,0.3c0.1,0.1,0.2,0.1,0.3,0.1
			c0.2,0,0.4,0,0.5-0.1c0.3-0.1,0.4-0.2,0.7-0.4c0.3-0.1,0.5-0.3,0.8-0.4c0.3-0.2,0.5-0.4,0.8-0.5c0.3-0.2,0.4-0.4,0.6-0.5
			c0.2-0.2,0.4-0.4,0.4-0.5c0,0.3,0,0.4,0,0.6s0,0.4,0,0.5s0,0.4,0,0.5s0,0.4,0,0.6c-0.2,0.2-0.4,0.4-0.6,0.5s-0.5,0.4-0.8,0.5
			s-0.6,0.4-0.9,0.5c-0.4,0.2-0.6,0.3-1,0.4c-0.4,0.2-0.6,0.3-1,0.3c-0.4,0-0.6,0.1-0.9,0.1s-0.5-0.1-0.7-0.2s-0.4-0.3-0.5-0.4
			c-0.2-0.2-0.3-0.4-0.4-0.7c-0.1-0.3-0.2-0.5-0.3-0.9c-0.3,0.4-0.5,0.6-0.8,0.9c-0.3,0.3-0.6,0.5-0.9,0.7c-0.3,0.2-0.6,0.4-0.9,0.4
			s-0.6,0.2-0.9,0.2s-0.4,0-0.6-0.1c-0.2-0.1-0.4-0.2-0.5-0.4s-0.3-0.4-0.4-0.7s-0.2-0.7-0.2-1.2c0-1,0.1-1.7,0.2-2.1
			c0.2-0.7,0.4-1.8,0.6-3.3c0-0.1,0.1-0.3,0.1-0.4c0-0.2,0.1-0.4,0.2-0.6c0.1-0.2,0.2-0.4,0.3-0.6c0.1-0.3,0.2-0.4,0.4-0.6
			c0.2-0.2,0.3-0.4,0.4-0.4s0.4-0.2,0.6-0.2c0.4,0,0.6,0.1,0.8,0.2c0.2,0.1,0.3,0.3,0.3,0.4c-0.1,0.4-0.2,1-0.2,1.4
			c-0.1,0.4-0.2,0.9-0.3,1.3s-0.2,1-0.3,1.5c-0.1,0.5-0.2,1-0.3,1.3c-0.1,0.4-0.1,0.6-0.2,0.8s-0.1,0.4-0.1,0.4c0,0.1,0,0.3,0,0.4
			s0.1,0.3,0.1,0.4c0.1,0.1,0.1,0.2,0.2,0.3c0.1,0.1,0.2,0.1,0.3,0.1c0.2,0,0.4,0,0.4-0.1c0.2-0.1,0.4-0.2,0.4-0.4
			c0.2-0.2,0.3-0.4,0.4-0.5c0.1-0.3,0.2-0.4,0.3-0.8l1.2-5.9c0-0.2,0.2-0.4,0.4-0.4c0.3-0.1,0.5-0.2,0.8-0.2c0.4,0,0.6,0.1,0.8,0.2
			C143.2,9.1,143.4,9.2,143.4,9.4z"/>
		<path class="st0" d="M145.7,17.2c0-0.4,0-0.7,0.1-1.1c0-0.4,0.1-0.9,0.2-1.3c0.1-0.4,0.1-1,0.2-1.4c0.1-0.4,0.2-1,0.4-1.5
			c0.1-0.5,0.3-1,0.4-1.3c0.1-0.4,0.2-0.6,0.3-0.9c0.1-0.2,0.1-0.3,0.2-0.4c0.1-0.1,0.1-0.2,0.2-0.2c0.1-0.1,0.2-0.1,0.3-0.1
			c0.1,0,0.3,0,0.4,0c0.2,0,0.4,0,0.4,0c0.1,0,0.2,0.1,0.3,0.1c0.1,0.1,0.1,0.2,0.1,0.3c0,0.1,0,0.3,0,0.5c0,0.3,0,0.6-0.1,1.2
			c0,0.4-0.1,0.9,0,1.2h0.1c0.2-0.3,0.4-0.6,0.5-1.2c0.2-0.5,0.4-0.9,0.7-1.2c0.3-0.3,0.5-0.5,0.8-0.8c0.3-0.3,0.6-0.4,1.1-0.4
			c0.2,0,0.3,0,0.4,0.1c0.1,0.1,0.3,0.1,0.4,0.2c0.1,0.1,0.2,0.2,0.3,0.4c0.1,0.1,0.1,0.3,0.1,0.4c0,0.1,0,0.3-0.1,0.5
			c0,0.2-0.1,0.5-0.2,0.9c-0.1,0.4-0.2,0.6-0.2,0.9c0,0.3-0.1,0.4-0.1,0.5c0,0.3,0,0.4,0.1,0.6s0.1,0.3,0.2,0.4
			c0.1,0.2,0.2,0.2,0.3,0.2s0.2,0.1,0.4,0.1c0.4,0,0.6-0.1,1-0.2c0.4-0.2,0.6-0.3,1-0.4c0.4-0.2,0.6-0.4,1-0.7l-0.2,2.5
			c-0.2,0.1-0.4,0.3-0.6,0.4s-0.5,0.3-0.8,0.4c-0.3,0.1-0.5,0.3-0.8,0.4c-0.3,0.1-0.6,0.2-0.9,0.2c-0.5,0-1-0.1-1.3-0.4
			c-0.4-0.2-0.6-0.5-0.8-0.9c-0.2-0.4-0.4-0.7-0.4-1.2c-0.1-0.4-0.2-0.9-0.3-1.3h-0.2l-2,5.3c-0.1,0.3-0.2,0.5-0.3,0.7
			c-0.1,0.2-0.2,0.4-0.3,0.4c-0.1,0.1-0.2,0.2-0.3,0.3c-0.1,0.1-0.3,0.1-0.4,0.1c-0.3,0-0.5-0.1-0.7-0.2s-0.4-0.3-0.4-0.5
			c-0.1-0.2-0.2-0.4-0.2-0.7C145.7,17.7,145.7,17.4,145.7,17.2z"/>
		<path class="st0" d="M164.2,18.3c0,0.2-0.1,0.4-0.2,0.5c-0.1,0.2-0.3,0.3-0.4,0.4c-0.2,0.1-0.4,0.2-0.4,0.2
			c-0.2,0-0.4,0.1-0.5,0.1c-0.2,0-0.4,0-0.5-0.1c-0.2,0-0.4-0.1-0.4-0.2c-0.2-0.1-0.3-0.2-0.4-0.3c-0.1-0.1-0.1-0.3-0.1-0.4
			c0-0.3,0-0.5,0-0.8c0-0.3,0.1-0.5,0.1-0.7c0.2-0.8,0.4-1.6,0.5-2.3c0.2-0.7,0.4-1.4,0.5-2c0.2-0.6,0.4-1.2,0.4-1.9
			c0.1-0.6,0.2-1.2,0.2-1.9c0.1-0.6,0.1-1.2,0.1-1.9s0-1.3,0-2.1c0-0.1,0-0.2,0-0.3s0-0.2,0-0.3c0-0.1-0.1-0.2-0.1-0.3
			C163,4,163,4,162.8,4c-0.2,0-0.4,0.1-0.6,0.2c-0.3,0.1-0.4,0.3-0.7,0.4s-0.5,0.4-0.8,0.7s-0.5,0.5-0.7,0.9c0,0.1-0.1,0.2-0.2,0.3
			c-0.1,0.1-0.2,0.1-0.3,0.1c0,0-0.1,0-0.1-0.1s-0.1-0.2-0.1-0.2c0-0.1-0.1-0.2-0.1-0.3c0-0.1,0-0.2,0-0.3V5.7
			c0.3-0.9,0.5-1.5,0.9-2.1c0.4-0.5,0.7-1.1,1.1-1.3c0.4-0.4,0.7-0.6,1.1-0.7c0.4-0.2,0.7-0.2,1.1-0.2c0.4,0,0.8,0.1,1.1,0.3
			s0.5,0.4,0.7,0.7s0.3,0.7,0.4,1.1c0.1,0.4,0.1,0.9,0.1,1.4c0,0.4,0,0.9-0.1,1.4c-0.1,0.5-0.2,1.1-0.3,1.7
			c-0.1,0.6-0.2,1.2-0.4,1.8c-0.2,0.6-0.3,1.2-0.4,1.7c0.3-1,0.5-1.9,0.8-2.8s0.6-1.7,1.1-2.5c0.4-0.8,0.8-1.4,1.2-2
			c0.4-0.6,0.9-1.2,1.3-1.6s0.9-0.8,1.3-1.1s0.9-0.4,1.3-0.4c0.4,0,0.6,0.1,0.9,0.2s0.5,0.4,0.7,0.6s0.4,0.7,0.4,1.2
			c0.1,0.4,0.2,1,0.2,1.6c0,0.1,0,0.2,0,0.3s0,0.3,0,0.4c0,0.2,0,0.4-0.1,0.5c-0.1,0.2-0.1,0.4-0.1,0.5c-0.1,0.4-0.1,0.9-0.2,1.4
			h0.3c0.3-1.1,0.6-2,1.1-2.8c0.4-0.9,0.9-1.6,1.3-2.1c0.5-0.6,1.1-1.1,1.6-1.3c0.6-0.4,1.2-0.4,1.9-0.4c0.4,0,0.8,0.1,1.2,0.4
			c0.4,0.3,0.6,0.6,0.9,1.1c0.3,0.4,0.4,1,0.5,1.5c0.1,0.6,0.2,1.2,0.2,1.9s-0.1,1.2-0.2,2s-0.3,1.3-0.4,2c-0.1,0.6-0.3,1.3-0.4,2
			c-0.1,0.6-0.3,1.2-0.4,1.9c-0.1,0.5-0.2,1.1-0.3,1.6c-0.1,0.4-0.1,0.9-0.1,1.1c0,0.4,0.1,0.5,0.3,0.7c0.2,0.2,0.4,0.2,0.7,0.2
			c0.2,0,0.4-0.1,0.5-0.2c0.2-0.1,0.4-0.2,0.5-0.4c0.2-0.2,0.4-0.4,0.5-0.5c0.2-0.2,0.4-0.4,0.5-0.6c0.4-0.4,0.8-1,1.2-1.6
			c0,0,0,0.1,0.1,0.3c0.1,0.1,0.1,0.4,0.3,0.6c0.1,0.3,0.3,0.7,0.4,1.2c-0.4,0.6-0.7,1.2-1.1,1.6c-0.4,0.4-0.8,0.8-1.2,1.1
			c-0.4,0.3-0.8,0.4-1.2,0.6c-0.4,0.1-0.8,0.2-1.2,0.2c-0.4,0-0.8-0.1-1.2-0.2c-0.4-0.2-0.7-0.4-1-0.6s-0.5-0.6-0.7-1
			c-0.2-0.4-0.3-0.9-0.3-1.3c0-0.1,0-0.1,0-0.2s0-0.1,0-0.2c0-0.4,0.1-1,0.2-1.5c0.1-0.5,0.2-1.2,0.3-1.7c0.1-0.6,0.2-1.2,0.4-1.8
			c0.1-0.6,0.2-1.2,0.4-1.8c0.1-0.6,0.2-1.2,0.4-1.8c0.1-0.6,0.2-1.1,0.2-1.5c0-0.4,0-0.6,0-0.9s-0.1-0.4-0.1-0.6
			c-0.1-0.2-0.2-0.4-0.3-0.4c-0.1-0.1-0.3-0.2-0.4-0.2c-0.4,0-0.8,0.1-1.2,0.4c-0.4,0.3-0.7,0.6-1,1.1c-0.4,0.4-0.6,1-0.9,1.7
			c-0.3,0.6-0.5,1.3-0.8,2c-0.3,0.7-0.4,1.5-0.6,2.3c-0.2,0.8-0.4,1.7-0.5,2.5c-0.2,0.9-0.4,1.7-0.4,2.5c-0.1,0.8-0.3,1.5-0.4,2.2
			c-0.1,0.2-0.1,0.4-0.3,0.5c-0.1,0.2-0.2,0.3-0.4,0.4c-0.2,0.1-0.3,0.2-0.4,0.2c-0.2,0-0.3,0.1-0.4,0.1c-0.2,0-0.3,0-0.4-0.1
			s-0.3-0.2-0.4-0.3c-0.1-0.1-0.2-0.3-0.3-0.4c-0.1-0.2-0.1-0.4-0.1-0.7c-0.2-0.2-0.2-0.5-0.1-1c0.1-0.4,0.2-1,0.4-1.6
			c0.1-0.6,0.3-1.3,0.4-2.1c0.2-0.8,0.4-1.5,0.4-2.3c0.1-0.8,0.3-1.5,0.4-2.3c0.2-0.8,0.3-1.5,0.3-2.1c0-0.4,0-0.8,0-1.2
			s-0.1-0.6-0.2-0.9c-0.1-0.3-0.2-0.4-0.4-0.5c-0.8-0.5-1-0.6-1.2-0.6c-0.2,0-0.4,0.2-0.7,0.4s-0.5,0.6-0.9,1.2
			c-0.3,0.4-0.6,1.1-1,1.7c-0.4,0.6-0.6,1.3-1,2.1c-0.4,0.7-0.6,1.5-1,2.4c-0.3,0.8-0.5,1.7-0.8,2.5c-0.3,0.8-0.4,1.6-0.6,2.4
			C164.4,17.1,164.4,17.7,164.2,18.3z"/>
		<path class="st0" d="M190.6,17.2c-0.3,0.3-0.6,0.4-1,0.8c-0.4,0.4-0.8,0.5-1.2,0.7c-0.4,0.3-0.9,0.4-1.3,0.5
			c-0.4,0.2-0.9,0.3-1.3,0.3c-0.4,0-0.7-0.1-1-0.2s-0.4-0.3-0.6-0.4s-0.3-0.4-0.4-0.7c-0.1-0.3-0.1-0.5-0.1-0.9c0-0.4,0.1-1,0.2-1.6
			c0.2-1.2,0.4-2,0.4-2.1c0.1-0.3,0.3-1,0.6-2c0.3-0.9,0.4-1.4,0.5-1.7c0-0.2,0.2-0.4,0.3-0.4c0.2-0.1,0.4-0.3,0.5-0.4
			s0.4-0.2,0.6-0.2s0.4-0.1,0.5-0.1c0.3,0,0.5,0.1,0.6,0.2c0.1,0.1,0.2,0.3,0.2,0.4c0,0.2,0,0.4-0.1,0.7c-0.1,0.3-0.2,0.6-0.3,1
			c-0.1,0.4-0.3,0.8-0.4,1.4c-0.2,0.6-0.3,1.1-0.4,1.5c-0.1,0.4-0.2,0.8-0.3,1.2c-0.1,0.4-0.2,0.8-0.2,1.1c0,0.4,0,0.6,0.1,0.8
			c0.1,0.2,0.2,0.3,0.4,0.3s0.5-0.1,0.9-0.3c0.4-0.2,0.6-0.4,1-0.6s0.6-0.5,1-0.8c0.3-0.3,0.6-0.5,0.8-0.7L190.6,17.2L190.6,17.2z
			 M185.8,5.9c0-0.2,0-0.4,0.1-0.5c0.1-0.2,0.2-0.4,0.4-0.6c0.2-0.2,0.4-0.4,0.6-0.4s0.6-0.2,1-0.2c0.3,0,0.4,0,0.7,0.1
			c0.2,0.1,0.4,0.2,0.6,0.3c0.2,0.1,0.3,0.3,0.4,0.4s0.2,0.4,0.2,0.7c0,0.3,0,0.4-0.1,0.7c-0.1,0.3-0.2,0.4-0.4,0.6
			s-0.4,0.4-0.6,0.4c-0.3,0.1-0.5,0.2-1,0.2c-0.6,0-1.1-0.2-1.4-0.4C185.9,6.8,185.8,6.3,185.8,5.9z"/>
		<path class="st0" d="M189.5,15.4c0.4-0.4,0.7-0.6,1-0.9s0.5-0.5,0.7-0.8c0.3-0.3,0.4-0.5,0.6-0.7c0.2-0.2,0.4-0.4,0.5-0.7
			c0.2-0.3,0.4-0.6,0.7-1s0.6-0.9,1.2-1.4c0.1-0.1,0.2-0.3,0.4-0.4c0.1-0.1,0.3-0.3,0.4-0.4c0.2-0.1,0.3-0.2,0.4-0.3
			c0.2-0.1,0.4-0.1,0.5-0.1c0.4,0,0.6,0,0.8,0.1s0.4,0.2,0.4,0.3c0.1,0.1,0.2,0.3,0.2,0.4c0,0.1,0,0.3,0,0.3c0,0.2-0.1,0.4-0.2,0.5
			c-0.2,0.2-0.3,0.4-0.4,0.6s-0.4,0.4-0.4,0.5c-0.2,0.2-0.3,0.3-0.3,0.4c0,0.3,0,0.4,0.1,0.6c0,0.2,0.1,0.4,0.1,0.5
			c0.1,0.2,0.1,0.4,0.2,0.5s0.1,0.4,0.2,0.7c0.1,0.3,0.1,0.6,0,1.1c0,0.4-0.1,0.9-0.1,1.4c0.3-0.2,0.5-0.4,0.8-0.4s0.6-0.3,0.9-0.4
			c0.4-0.2,0.6-0.4,1-0.5s0.7-0.4,1.1-0.7V17c-0.4,0.4-1,0.6-1.5,0.9c-0.6,0.3-1.2,0.5-1.9,0.8c-0.7,0.3-1.3,0.4-2,0.5
			c-0.6,0.2-1.2,0.2-1.9,0.2c-0.4,0-0.8,0-1.2-0.1c-0.4-0.1-0.7-0.2-1-0.4c-0.3-0.2-0.5-0.4-0.7-0.6c-0.2-0.3-0.3-0.5-0.4-1
			c-0.1,0-0.2,0-0.3,0s-0.2,0-0.3,0s-0.3,0-0.4,0s-0.2,0-0.3-0.1c-0.1-0.1-0.1-0.1-0.2-0.3c-0.1-0.2-0.1-0.3-0.1-0.4
			c0-0.2,0-0.4,0.1-0.4c0.1-0.1,0.2-0.3,0.3-0.4c0.1-0.1,0.3-0.2,0.4-0.3C189.1,15.4,189.5,15.4,189.5,15.4z M190.8,16.7
			c0.1,0,0.2,0.1,0.3,0.2c0.1,0.1,0.3,0.3,0.4,0.4c0.2,0.1,0.3,0.3,0.4,0.4s0.4,0.2,0.6,0.2c0.3,0,0.5-0.1,0.7-0.2
			c0.2-0.1,0.4-0.2,0.4-0.4c0.1-0.2,0.2-0.4,0.3-0.5c0.1-0.2,0.1-0.4,0.1-0.6c0-0.2,0-0.4,0-0.6c0-0.2,0-0.4,0-0.7
			c0-0.3,0-0.5,0-0.7c-0.1-0.2-0.1-0.3-0.1-0.4L190.8,16.7z"/>
		<path class="st0" d="M198.7,15.4c0.4-0.4,0.7-0.6,1-0.9s0.5-0.5,0.7-0.8c0.3-0.3,0.4-0.5,0.6-0.7c0.2-0.2,0.4-0.4,0.5-0.7
			c0.2-0.3,0.4-0.6,0.7-1s0.6-0.9,1.2-1.4c0.1-0.1,0.2-0.3,0.4-0.4c0.1-0.1,0.3-0.3,0.4-0.4c0.2-0.1,0.3-0.2,0.4-0.3
			c0.2-0.1,0.4-0.1,0.5-0.1c0.4,0,0.6,0,0.8,0.1s0.4,0.2,0.4,0.3c0.1,0.1,0.2,0.3,0.2,0.4c0,0.1,0,0.3,0,0.3c0,0.2-0.1,0.4-0.2,0.5
			c-0.2,0.2-0.3,0.4-0.4,0.6s-0.4,0.4-0.4,0.5c-0.2,0.2-0.3,0.3-0.3,0.4c0,0.3,0,0.4,0.1,0.6c0,0.2,0.1,0.4,0.1,0.5
			c0.1,0.2,0.1,0.4,0.2,0.5s0.1,0.4,0.2,0.7c0.1,0.3,0.1,0.6,0,1.1c0,0.4-0.1,0.9-0.1,1.4c0.3-0.2,0.5-0.4,0.8-0.4s0.6-0.3,0.9-0.4
			c0.4-0.2,0.6-0.4,1-0.5s0.7-0.4,1.1-0.7V17c-0.4,0.4-1,0.6-1.5,0.9c-0.6,0.3-1.2,0.5-1.9,0.8c-0.7,0.3-1.3,0.4-2,0.5
			c-0.6,0.2-1.2,0.2-1.9,0.2c-0.4,0-0.8,0-1.2-0.1c-0.4-0.1-0.7-0.2-1-0.4c-0.3-0.2-0.5-0.4-0.7-0.6c-0.2-0.3-0.3-0.5-0.4-1
			c-0.1,0-0.2,0-0.3,0s-0.2,0-0.3,0s-0.3,0-0.4,0s-0.2,0-0.3-0.1c-0.1-0.1-0.1-0.1-0.2-0.3c-0.1-0.2-0.1-0.3-0.1-0.4
			c0-0.2,0-0.4,0.1-0.4c0.1-0.1,0.2-0.3,0.3-0.4c0.1-0.1,0.3-0.2,0.4-0.3C198.4,15.4,198.7,15.4,198.7,15.4z M200.1,16.7
			c0.1,0,0.2,0.1,0.3,0.2c0.1,0.1,0.3,0.3,0.4,0.4c0.2,0.1,0.3,0.3,0.4,0.4s0.4,0.2,0.6,0.2c0.3,0,0.5-0.1,0.7-0.2
			c0.2-0.1,0.4-0.2,0.4-0.4c0.1-0.2,0.2-0.4,0.3-0.5c0.1-0.2,0.1-0.4,0.1-0.6c0-0.2,0-0.4,0-0.6c0-0.2,0-0.4,0-0.7
			c0-0.3,0-0.5,0-0.7c-0.1-0.2-0.1-0.3-0.1-0.4L200.1,16.7z"/>
		<path class="st0" d="M214.9,17.2c-0.3,0.3-0.6,0.4-1,0.8c-0.4,0.4-0.8,0.5-1.2,0.7c-0.4,0.3-0.9,0.4-1.3,0.5
			c-0.4,0.2-0.9,0.3-1.3,0.3c-0.4,0-0.7-0.1-1-0.2s-0.4-0.3-0.6-0.4s-0.3-0.4-0.4-0.7s-0.1-0.5-0.1-0.9c0-0.4,0.1-1,0.2-1.6
			c0.2-1.2,0.4-2,0.4-2.1c0.1-0.3,0.3-1,0.6-2c0.3-0.9,0.4-1.4,0.5-1.7c0-0.2,0.2-0.4,0.3-0.4c0.2-0.1,0.4-0.3,0.5-0.4
			c0.2-0.1,0.4-0.2,0.6-0.2s0.4-0.1,0.5-0.1c0.3,0,0.5,0.1,0.6,0.2s0.2,0.3,0.2,0.4c0,0.2,0,0.4-0.1,0.7c-0.1,0.3-0.2,0.6-0.3,1
			c-0.1,0.4-0.3,0.8-0.4,1.4c-0.2,0.6-0.3,1.1-0.4,1.5c-0.1,0.4-0.2,0.8-0.3,1.2c-0.1,0.4-0.2,0.8-0.2,1.1c0,0.4,0,0.6,0.1,0.8
			c0.1,0.2,0.2,0.3,0.4,0.3s0.5-0.1,0.9-0.3c0.4-0.2,0.6-0.4,1-0.6s0.6-0.5,1-0.8c0.3-0.3,0.6-0.5,0.8-0.7L214.9,17.2L214.9,17.2z
			 M210.1,5.9c0-0.2,0-0.4,0.1-0.5c0.1-0.2,0.2-0.4,0.4-0.6c0.2-0.2,0.4-0.4,0.6-0.4c0.3-0.1,0.6-0.2,1-0.2c0.3,0,0.4,0,0.7,0.1
			c0.2,0.1,0.4,0.2,0.6,0.3c0.2,0.1,0.3,0.3,0.4,0.4s0.2,0.4,0.2,0.7c0,0.3,0,0.4-0.1,0.7c-0.1,0.3-0.2,0.4-0.4,0.6
			c-0.2,0.2-0.4,0.4-0.6,0.4s-0.5,0.2-1,0.2c-0.6,0-1.1-0.2-1.4-0.4C210.2,6.8,210.1,6.3,210.1,5.9z"/>
		<path class="st0" d="M220.7,11.1c0.2,0.4,0.4,0.9,0.4,1.3c0.1,0.4,0.2,1,0.2,1.6c0,0.4-0.1,0.9-0.2,1.2c-0.1,0.4-0.3,0.9-0.4,1.2
			c-0.2,0.4-0.4,0.8-0.6,1.2c-0.3,0.4-0.5,0.6-0.9,0.9c-0.4,0.3-0.7,0.4-1.1,0.6s-0.8,0.3-1.2,0.3c-0.6,0-1.2-0.2-1.6-0.4
			c-0.4-0.3-0.8-0.6-1.1-1.1s-0.5-1-0.6-1.5c-0.1-0.5-0.2-1.2-0.2-1.7c0-1,0.1-1.8,0.4-2.5c0.3-0.7,0.5-1.2,1-1.8
			c0.4-0.5,1-0.9,1.6-1.2c0.6-0.3,1.3-0.4,2.1-0.4c0.7,0,1.3,0.1,2,0.4c0.6,0.2,1.2,0.5,1.7,0.9c0.5,0.4,1,0.8,1.4,1.3
			c0.4,0.5,0.9,1.1,1.2,1.5l-0.2,1.5c-0.2-0.3-0.4-0.5-0.8-0.8c-0.4-0.3-0.7-0.6-1.1-1c-0.4-0.4-0.7-0.7-1.1-0.9
			C221.3,11.6,221.1,11.4,220.7,11.1L220.7,11.1z M217.4,17.3c0.3,0,0.4-0.1,0.7-0.4s0.4-0.5,0.6-1c0.2-0.4,0.3-0.8,0.4-1.3
			c0.1-0.5,0.2-1,0.2-1.4c0-0.4,0-0.6-0.1-0.9c-0.1-0.3-0.1-0.5-0.3-0.7c-0.2-0.2-0.3-0.4-0.4-0.5c-0.2-0.1-0.4-0.2-0.5-0.2
			c-0.3,0-0.5,0.1-0.8,0.4s-0.5,0.5-0.7,1c-0.2,0.4-0.4,0.8-0.4,1.3c-0.1,0.4-0.2,1-0.2,1.6c0,0.3,0,0.6,0.1,0.9
			c0.1,0.3,0.2,0.5,0.3,0.7c0.1,0.2,0.3,0.4,0.4,0.4C216.9,17.3,217.2,17.3,217.4,17.3z"/>
		<path class="st0" d="M223.4,17.2c0-0.4,0-1,0.1-1.6c0.1-0.6,0.1-1.3,0.2-2c0.1-0.7,0.2-1.4,0.3-2c0.1-0.6,0.2-1.1,0.4-1.5
			c0.1-0.4,0.3-0.6,0.4-0.8c0.3-0.2,0.5-0.4,0.9-0.4c0.4,0,0.6,0.1,0.8,0.4c0.2,0.3,0.3,0.5,0.3,1c0,0.1,0,0.3,0,0.4
			c0,0.2-0.1,0.4-0.1,0.6c0,0.2-0.1,0.4-0.1,0.7c0,0.3-0.1,0.5-0.1,0.8s-0.1,0.5-0.1,0.6c0,0.2,0,0.3,0,0.3h0.2
			c0-0.1,0.1-0.2,0.2-0.4c0.1-0.2,0.2-0.4,0.4-0.8c0.1-0.4,0.3-0.6,0.4-0.9c0.2-0.3,0.3-0.5,0.4-0.7c0.1-0.3,0.3-0.4,0.4-0.6
			c0.1-0.2,0.2-0.4,0.3-0.4c0.3-0.4,0.5-0.6,0.8-0.8c0.3-0.2,0.6-0.2,1-0.2s0.6,0.2,0.9,0.4c0.2,0.3,0.4,0.7,0.4,1.2
			c0,0.1,0,0.2-0.1,0.4c0,0.2-0.1,0.4-0.1,0.6c-0.1,0.3-0.1,0.6-0.2,1c-0.1,0.4-0.1,0.8-0.2,1.1c-0.1,0.4-0.1,0.6-0.1,1
			s-0.1,0.6-0.1,0.9c0,0.4,0.1,0.8,0.2,1.1c0.1,0.3,0.3,0.4,0.5,0.4c0.1,0,0.2,0,0.4-0.1c0.3-0.1,0.4-0.2,0.4-0.3
			c0.4-0.3,0.4-0.4,0.5-0.4c0,0,0.3-0.2,0.7-0.4c0.5-0.4,1.2-0.8,2-1.3v2.4l-0.5,0.4c0,0-0.4,0.3-1,0.5c-0.9,0.4-1.5,0.8-1.7,0.9
			c-0.5,0.3-0.9,0.4-1.1,0.4c-0.4,0.1-0.7,0.2-1.2,0.2s-0.7-0.3-1-0.9s-0.4-1.4-0.4-2.5c0-0.4,0-0.9,0.1-1.4
			c0.1-0.5,0.1-1.1,0.2-1.6h-0.2l-2.8,5.6c-0.2,0.3-0.4,0.5-0.4,0.6c-0.2,0.1-0.4,0.2-0.6,0.2s-0.5-0.1-0.7-0.2
			c-0.2-0.1-0.4-0.3-0.4-0.5c-0.1-0.2-0.2-0.4-0.2-0.7C223.5,17.7,223.4,17.4,223.4,17.2z"/>
	</g>
</g>
</svg>
