<?xml version="1.0" encoding="utf-8"?>
<!-- Generator: Adobe Illustrator 22.1.0, SVG Export Plug-In . SVG Version: 6.00 Build 0)  -->
<svg version="1.1" id="Layer_1" xmlns="http://www.w3.org/2000/svg" xmlns:xlink="http://www.w3.org/1999/xlink" x="0px" y="0px"
	 width="105px" height="60.2px" viewBox="0 0 105 60.2" style="enable-background:new 0 0 105 60.2;" xml:space="preserve">
<style type="text/css">
	.st0{fill:#ABABAB;}
</style>
<g>
	<g>
		<polygon class="st0" points="26.3,45.8 13,38.2 0.4,45.3 26.3,60.2 52.1,45.3 39.5,38.2 		"/>
		<polygon class="st0" points="13.3,23.2 13.3,37.1 25.5,30.1 		"/>
		<polygon class="st0" points="39.5,22.1 52.1,14.8 26.3,0 13.3,7.5 13.3,21.8 26.3,14.4 		"/>
		<polygon class="st0" points="12.6,7.9 0,15 0,44.7 12.6,37.5 		"/>
		<polygon class="st0" points="92.8,37.8 105,44.7 105,30.7 		"/>
		<polygon class="st0" points="79.1,15.5 79.1,29.4 91.3,22.5 		"/>
		<polygon class="st0" points="91.7,7.5 79.1,0.2 79.1,14.6 91.7,21.8 		"/>
		<polygon class="st0" points="78.7,45.8 65.5,38.2 52.9,45.3 78.7,60.2 104.6,45.3 92,38.2 		"/>
		<path class="st0" d="M74.8,2.3c-1.3,0.8-2.6,1.6-4.1,2.4c-1.4,0.8-2.8,1.6-4.3,2.5s-2.8,1.7-4.2,2.4c-3.1,1.9-6.4,3.6-9.6,5.6
			v15.7l0,0l-12.2,7l12.2,7l0,0l0,0l12.6-7.2V22.3l13.3-7.7V0.2C77.2,0.9,76.1,1.6,74.8,2.3z"/>
	</g>
	<g>
		<polygon class="st0" points="26.3,45.8 13,38.2 0.4,45.3 26.3,60.2 52.1,45.3 39.5,38.2 		"/>
		<polygon class="st0" points="13.3,23.2 13.3,37.1 25.5,30.1 		"/>
		<polygon class="st0" points="39.5,22.1 52.1,14.8 26.3,0 13.3,7.5 13.3,21.8 26.3,14.4 		"/>
		<polygon class="st0" points="12.6,7.9 0,15 0,44.7 12.6,37.5 		"/>
		<polygon class="st0" points="92.8,37.8 105,44.7 105,30.7 		"/>
		<polygon class="st0" points="79.1,15.5 79.1,29.4 91.3,22.5 		"/>
		<polygon class="st0" points="91.7,7.5 79.1,0.2 79.1,14.6 91.7,21.8 		"/>
		<polygon class="st0" points="78.7,45.8 65.5,38.2 52.9,45.3 78.7,60.2 104.6,45.3 92,38.2 		"/>
		<path class="st0" d="M74.8,2.3c-1.3,0.8-2.6,1.6-4.1,2.4c-1.4,0.8-2.8,1.6-4.3,2.5s-2.8,1.7-4.2,2.4c-3.1,1.9-6.4,3.6-9.6,5.6
			v15.7l0,0l-12.2,7l12.2,7l0,0l0,0l12.6-7.2V22.3l13.3-7.7V0.2C77.2,0.9,76.1,1.6,74.8,2.3z"/>
	</g>
</g>
</svg>
