<?xml version="1.0" encoding="utf-8"?>
<!-- Generator: Adobe Illustrator 22.1.0, SVG Export Plug-In . SVG Version: 6.00 Build 0)  -->
<svg version="1.1" id="Capa_1" xmlns="http://www.w3.org/2000/svg" xmlns:xlink="http://www.w3.org/1999/xlink" x="0px" y="0px"
	 width="528px" height="528px" viewBox="0 0 528 528" style="enable-background:new 0 0 528 528;" xml:space="preserve">
<style type="text/css">
	.st0{fill:#EAEAEA;}
	.st1{opacity:0.67;}
	.st2{fill:#231F20;}
</style>
<g id="Layer_2_1_">
	<rect y="0" class="st0" width="528" height="528"/>
</g>
<g class="st1">
	<path class="st2" d="M264,311.4c57.3,0,103.8-56.4,103.8-126s-15.3-126-103.8-126s-103.8,56.4-103.8,126
		C160.2,254.9,206.7,311.4,264,311.4z"/>
	<path class="st2" d="M68,503.8C68,499.5,68,502.6,68,503.8L68,503.8z"/>
	<path class="st2" d="M460,507.1C460,505.9,460,499,460,507.1L460,507.1z"/>
	<path class="st2" d="M459.7,498.7C457.8,377.5,442,342.9,320.8,321c0,0-17.1,21.7-56.8,21.7S207.2,321,207.2,321
		C87.3,342.7,70.5,376.7,68.3,494.8c-0.2,9.6-0.3,10.1-0.3,9c0,2.1,0,6,0,12.7c0,0,28.8,58.2,196,58.2c167.1,0,196-58.2,196-58.2
		c0-4.3,0-7.4,0-9.4C459.9,507.8,459.9,506.5,459.7,498.7z"/>
</g>
</svg>
