<?xml version="1.0" encoding="utf-8"?>
<!-- Generator: Adobe Illustrator 22.1.0, SVG Export Plug-In . SVG Version: 6.00 Build 0)  -->
<svg version="1.1" id="Layer_1" xmlns="http://www.w3.org/2000/svg" xmlns:xlink="http://www.w3.org/1999/xlink" x="0px" y="0px"
	 width="601.6px" height="345.2px" viewBox="0 0 601.6 345.2" style="enable-background:new 0 0 601.6 345.2;" xml:space="preserve"
	>
<style type="text/css">
	.st0{fill:#683D99;}
	.st1{fill:url(#SVGID_1_);}
	.st2{fill:#FFFFFF;}
</style>
<g>
	<g>
		<polygon class="st0" points="150.4,262.7 74.1,218.9 2.2,260.2 150.4,345.2 298.6,260.2 226.7,218.9 		"/>
		<polygon class="st0" points="76.3,132.6 76.3,212.6 146,172.6 		"/>
		<polygon class="st0" points="226.7,126.3 298.6,85.1 150.4,0 76.3,42.5 76.3,125.1 150.4,82.5 		"/>
		<polygon class="st0" points="71.9,45 0,86.3 0,256.4 71.9,215.1 		"/>
		<polygon class="st0" points="531.9,216.4 601.6,256.4 601.6,176.4 		"/>
		<polygon class="st0" points="453.4,88.8 453.4,168.8 523.1,128.8 		"/>
		<polygon class="st0" points="525.3,42.5 453.4,1.3 453.4,83.8 525.3,125.1 		"/>
		<radialGradient id="SVGID_1_" cx="-140.832" cy="35.6133" r="195.205" gradientUnits="userSpaceOnUse">
			<stop  offset="0" style="stop-color:#119EE6"/>
			<stop  offset="0.25" style="stop-color:#7952AB"/>
			<stop  offset="0.5" style="stop-color:#CA177D"/>
			<stop  offset="0.75" style="stop-color:#EA2127"/>
			<stop  offset="1" style="stop-color:#FE9D3F"/>
		</radialGradient>
		<polygon class="st1" points="451.2,262.7 374.9,218.9 303,260.2 451.2,345.2 599.4,260.2 527.5,218.9 		"/>
		<path class="st0" d="M428.4,13.1c-7.5,4.4-15.3,8.9-23.5,13.4c-8.1,4.6-16.4,9.3-24.7,14.1c-8.3,4.8-16.4,9.4-24.1,13.8
			c-18.1,10.4-36.6,21.1-55.3,31.9v90.1h0l-69.7,40l69.7,40v0l0,0l71.9-41.3v-87.6L449,83.8V1.3C442.8,4.8,435.9,8.8,428.4,13.1z"/>
	</g>
	<g>
		<polygon class="st2" points="150.4,262.7 74.1,218.9 2.2,260.2 150.4,345.2 298.6,260.2 226.7,218.9 		"/>
		<polygon class="st2" points="76.3,132.6 76.3,212.6 146,172.6 		"/>
		<polygon class="st2" points="226.7,126.3 298.6,85.1 150.4,0 76.3,42.5 76.3,125.1 150.4,82.5 		"/>
		<polygon class="st2" points="71.9,45 0,86.3 0,256.4 71.9,215.1 		"/>
		<polygon class="st2" points="531.9,216.4 601.6,256.4 601.6,176.4 		"/>
		<polygon class="st2" points="453.4,88.8 453.4,168.8 523.1,128.8 		"/>
		<polygon class="st2" points="525.3,42.5 453.4,1.3 453.4,83.8 525.3,125.1 		"/>
		<polygon class="st2" points="451.2,262.7 374.9,218.9 303,260.2 451.2,345.2 599.4,260.2 527.5,218.9 		"/>
		<path class="st2" d="M428.4,13.1c-7.5,4.4-15.3,8.9-23.5,13.4c-8.1,4.6-16.4,9.3-24.7,14.1c-8.3,4.8-16.4,9.4-24.1,13.8
			c-18.1,10.4-36.6,21.1-55.3,31.9v90.1h0l-69.7,40l69.7,40v0l0,0l71.9-41.3v-87.6L449,83.8V1.3C442.8,4.8,435.9,8.8,428.4,13.1z"/>
	</g>
</g>
</svg>
